<svg width="49" height="49" viewBox="0 0 49 49" fill="none" xmlns="http://www.w3.org/2000/svg">
<g filter="url(#filter0_d_29_207)">
<circle cx="22.5" cy="22.5" r="22.5" fill="#FFDC35"/>
<circle cx="22.5" cy="22.5" r="20.1804" fill="black"/>
</g>
<g clip-path="url(#clip0_29_207)">
<path d="M13.3398 10V11.7333H30.6602V10H13.3398ZM30.6602 11.7333V13.4667H32.3935V11.7333H30.6602ZM32.3935 13.4667V29.0667H30.6602V30.8H13.3398V29.0667H11.6065V13.4667H9.87642V32.5333H11.6087V34.2667H13.3409V36H30.6613V34.2667H32.3946V32.5333H34.1258V13.4667H32.3935ZM11.6076 13.4667H13.3398V11.7333H11.6065L11.6076 13.4667ZM16.8033 16.9333V23.8667H18.5366V16.9333H16.8033ZM25.4645 16.9333V23.8667H27.1968V16.9333H25.4645Z" fill="#FFDC35"/>
</g>
<defs>
<filter id="filter0_d_29_207" x="0" y="0" width="49" height="49" filterUnits="userSpaceOnUse" color-interpolation-filters="sRGB">
<feFlood flood-opacity="0" result="BackgroundImageFix"/>
<feColorMatrix in="SourceAlpha" type="matrix" values="0 0 0 0 0 0 0 0 0 0 0 0 0 0 0 0 0 0 127 0" result="hardAlpha"/>
<feOffset dx="2" dy="2"/>
<feGaussianBlur stdDeviation="1"/>
<feComposite in2="hardAlpha" operator="out"/>
<feColorMatrix type="matrix" values="0 0 0 0 0 0 0 0 0 0 0 0 0 0 0 0 0 0 0.25 0"/>
<feBlend mode="normal" in2="BackgroundImageFix" result="effect1_dropShadow_29_207"/>
<feBlend mode="normal" in="SourceGraphic" in2="effect1_dropShadow_29_207" result="shape"/>
</filter>
<clipPath id="clip0_29_207">
<rect width="26" height="26" fill="white" transform="translate(9 10)"/>
</clipPath>
</defs>
</svg>
