<svg width="49" height="49" viewBox="0 0 49 49" fill="none" xmlns="http://www.w3.org/2000/svg">
<g filter="url(#filter0_d_29_56)">
<circle cx="22.5" cy="22.5" r="22.5" fill="#FFDC35"/>
<circle cx="22.5" cy="22.5" r="20.1804" fill="black"/>
</g>
<path fill-rule="evenodd" clip-rule="evenodd" d="M13.8157 11C12.218 11 11.0359 12.3792 11.0888 13.875C11.1396 15.312 11.0736 17.1731 10.5986 18.6909C10.1219 20.2129 9.31622 21.1774 8 21.3012V22.6988C9.31622 22.8229 10.1219 23.7869 10.5985 25.3091C11.0736 26.8269 11.1396 28.688 11.0887 30.125C11.0358 31.6205 12.218 33 13.8159 33H30.1864C31.7841 33 32.966 31.6208 32.9131 30.125C32.8623 28.688 32.9283 26.8269 33.4033 25.3091C33.88 23.7869 34.6837 22.8225 36 22.6988V21.3012C34.6838 21.1771 33.8801 20.2131 33.4033 18.6909C32.9283 17.1733 32.8623 15.312 32.9131 13.875C32.966 12.3794 31.7841 11 30.1864 11H13.8155H13.8157ZM26.9831 24.5424C26.9831 26.602 25.4255 27.8511 22.8407 27.8511H18.4407C18.3148 27.8511 18.1941 27.8018 18.1051 27.714C18.0161 27.6262 17.9661 27.5071 17.9661 27.383V16.617C17.9661 16.4929 18.0161 16.3738 18.1051 16.2861C18.1941 16.1983 18.3148 16.149 18.4407 16.149H22.8157C24.971 16.149 26.3854 17.3005 26.3854 19.0684C26.3854 20.3093 25.4339 21.4201 24.2216 21.6148V21.6795C25.8719 21.858 26.9831 22.9854 26.9831 24.5424ZM22.3609 17.6328H19.8521V21.1281H21.9652C23.5987 21.1281 24.4994 20.4793 24.4994 19.3196C24.4992 18.2329 23.7248 17.6328 22.3609 17.6328ZM19.8521 22.5149V26.3668H22.4532C24.154 26.3668 25.0549 25.6937 25.0549 24.4287C25.0549 23.1637 24.1288 22.5147 22.3439 22.5147H19.8521V22.5149Z" fill="#FFDC35"/>
<defs>
<filter id="filter0_d_29_56" x="0" y="0" width="49" height="49" filterUnits="userSpaceOnUse" color-interpolation-filters="sRGB">
<feFlood flood-opacity="0" result="BackgroundImageFix"/>
<feColorMatrix in="SourceAlpha" type="matrix" values="0 0 0 0 0 0 0 0 0 0 0 0 0 0 0 0 0 0 127 0" result="hardAlpha"/>
<feOffset dx="2" dy="2"/>
<feGaussianBlur stdDeviation="1"/>
<feComposite in2="hardAlpha" operator="out"/>
<feColorMatrix type="matrix" values="0 0 0 0 0 0 0 0 0 0 0 0 0 0 0 0 0 0 0.25 0"/>
<feBlend mode="normal" in2="BackgroundImageFix" result="effect1_dropShadow_29_56"/>
<feBlend mode="normal" in="SourceGraphic" in2="effect1_dropShadow_29_56" result="shape"/>
</filter>
</defs>
</svg>
