<svg width="49" height="49" viewBox="0 0 49 49" fill="none" xmlns="http://www.w3.org/2000/svg">
<g filter="url(#filter0_d_29_162)">
<circle cx="22.5" cy="22.5" r="22.5" fill="#FFDC35"/>
<circle cx="22.5" cy="22.5" r="20.1804" fill="black"/>
</g>
<path d="M13.8637 22.5C13.8661 20.2102 14.7767 18.0149 16.3958 16.3958C18.0149 14.7767 20.2102 13.8661 22.5 13.8638C24.0151 13.8669 25.5029 14.2669 26.8153 15.0241C28.1276 15.7812 29.2187 16.8689 29.9798 18.179L27.7937 19.4433L35.1248 15.2113C34.9362 14.8691 34.6637 14.5805 34.3329 14.3727L23.6215 8.18939C23.0031 7.83209 21.994 7.83209 21.3771 8.18939L10.6656 14.3727C10.0502 14.7286 9.54562 15.6036 9.54562 16.3167V28.6833C9.54562 29.0406 9.67104 29.4373 9.87521 29.7888L15.0217 26.8167C14.2611 25.5054 13.8616 24.0159 13.8637 22.5Z" fill="#FFDC35"/>
<path d="M26.2392 20.3402C25.859 19.685 25.3137 19.1409 24.6576 18.7621C24.0015 18.3834 23.2576 18.1834 22.5 18.1819C21.7427 18.1834 20.999 18.3838 20.3435 18.7631C19.688 19.1424 19.1437 19.6873 18.765 20.3431C18.3864 20.999 18.1867 21.7428 18.1859 22.5002C18.1852 23.2575 18.3834 24.0017 18.7608 24.6583L22.5 22.5L26.2392 20.3402Z" fill="#FFDC35"/>
<path d="M35.1248 15.2112L27.766 19.4594L26.2406 20.3417L26.2392 20.3402L22.5 22.5L18.7623 24.6583C19.1414 25.3143 19.6862 25.8592 20.3422 26.2382C20.9982 26.6173 21.7423 26.8173 22.5 26.8181C23.258 26.8169 24.0023 26.6168 24.6588 26.2378C25.3152 25.8588 25.8606 25.3142 26.2406 24.6583L29.9783 26.821C29.2174 28.1313 28.1264 29.2192 26.814 29.9763C25.5016 30.7335 24.0137 31.1334 22.4985 31.1362C20.9827 31.1354 19.4937 30.7358 18.1811 29.9776C16.8685 29.2194 15.7784 28.1293 15.0202 26.8167L9.87375 29.7887C10.0779 30.1417 10.3579 30.4494 10.6656 30.6273L21.3771 36.8106C21.994 37.1679 23.0031 37.1679 23.6215 36.8106L34.3329 30.6273C34.6406 30.4494 34.9206 30.1417 35.1248 29.7887C35.329 29.4373 35.4544 29.0406 35.4544 28.6833V16.3167C35.4544 15.9594 35.329 15.5627 35.1248 15.2112ZM31.1363 22.9798H30.1767V23.9394H29.2185V22.9798H28.259V22.0202H29.2185V21.0606H30.1767V22.0202H31.1363V22.9798ZM34.7354 22.9798H33.7758V23.9394H32.8162V22.9798H31.8581V22.0202H32.8162V21.0606H33.7758V22.0202H34.7354V22.9798Z" fill="#FFDC35"/>
<defs>
<filter id="filter0_d_29_162" x="0" y="0" width="49" height="49" filterUnits="userSpaceOnUse" color-interpolation-filters="sRGB">
<feFlood flood-opacity="0" result="BackgroundImageFix"/>
<feColorMatrix in="SourceAlpha" type="matrix" values="0 0 0 0 0 0 0 0 0 0 0 0 0 0 0 0 0 0 127 0" result="hardAlpha"/>
<feOffset dx="2" dy="2"/>
<feGaussianBlur stdDeviation="1"/>
<feComposite in2="hardAlpha" operator="out"/>
<feColorMatrix type="matrix" values="0 0 0 0 0 0 0 0 0 0 0 0 0 0 0 0 0 0 0.25 0"/>
<feBlend mode="normal" in2="BackgroundImageFix" result="effect1_dropShadow_29_162"/>
<feBlend mode="normal" in="SourceGraphic" in2="effect1_dropShadow_29_162" result="shape"/>
</filter>
</defs>
</svg>
