<svg width="49" height="49" viewBox="0 0 49 49" fill="none" xmlns="http://www.w3.org/2000/svg">
<g filter="url(#filter0_d_29_170)">
<circle cx="22.5" cy="22.5" r="22.5" fill="#FFDC35"/>
<circle cx="22.5" cy="22.5" r="20.1804" fill="black"/>
</g>
<g clip-path="url(#clip0_29_170)">
<path d="M21.3753 17.9375C19.1315 17.9375 17.3125 19.7565 17.3125 22.0003C17.3125 24.2441 19.1315 26.063 21.3753 26.063C22.5324 26.063 23.5749 25.5809 24.3164 24.8031C24.7809 24.316 25.5523 24.2975 26.0395 24.762C26.5267 25.2264 26.5451 25.9978 26.0806 26.485C24.8983 27.7252 23.2263 28.5005 21.3753 28.5005C17.7853 28.5005 14.875 25.5903 14.875 22.0003C14.875 18.4103 17.7853 15.5 21.3753 15.5C23.2185 15.5 24.8842 16.2688 26.0657 17.4999C26.5318 17.9855 26.5158 18.757 26.0303 19.2231C25.5446 19.6891 24.7731 19.6733 24.307 19.1876C23.5661 18.4156 22.5276 17.9375 21.3753 17.9375Z" fill="#FFDC35"/>
<path d="M20.7029 9.16602C21.0823 8.94466 21.5516 8.94466 21.9311 9.16602L29.5918 13.6348C30.1732 13.9739 30.3695 14.7202 30.0304 15.3016C29.6913 15.883 28.9451 16.0794 28.3636 15.7402L21.317 11.6297L12.4375 16.8094V27.1906L21.317 32.3703L28.3636 28.2598C28.9451 27.9207 29.6913 28.117 30.0304 28.6984C30.3695 29.2798 30.1732 30.026 29.5918 30.3652L21.9311 34.8339C21.5516 35.0554 21.0823 35.0554 20.7029 34.8339L10.6047 28.9433C10.2302 28.7249 10 28.3242 10 27.8906V16.1094C10 15.6759 10.2302 15.2751 10.6047 15.0567L20.7029 9.16602Z" fill="#FFDC35"/>
<path d="M29.7923 17.5312C30.241 17.5312 30.6048 17.895 30.6048 18.3438V25.6562C30.6048 26.1049 30.241 26.4688 29.7923 26.4688C29.3437 26.4688 28.9798 26.1049 28.9798 25.6562V18.3438C28.9798 17.895 29.3437 17.5312 29.7923 17.5312Z" fill="#FFDC35"/>
<path d="M33.2702 17.5312C33.7188 17.5312 34.0827 17.895 34.0827 18.3438V25.6562C34.0827 26.1049 33.7188 26.4688 33.2702 26.4688C32.8215 26.4688 32.4577 26.1049 32.4577 25.6562V18.3438C32.4577 17.895 32.8215 17.5312 33.2702 17.5312Z" fill="#FFDC35"/>
<path d="M27.0625 20.2611C27.0625 19.8124 27.4263 19.4486 27.875 19.4486H35.1875C35.6362 19.4486 36 19.8124 36 20.2611C36 20.7099 35.6362 21.0736 35.1875 21.0736H27.875C27.4263 21.0736 27.0625 20.7099 27.0625 20.2611Z" fill="#FFDC35"/>
<path d="M27.0625 23.7389C27.0625 23.2901 27.4263 22.9264 27.875 22.9264H35.1875C35.6362 22.9264 36 23.2901 36 23.7389C36 24.1876 35.6362 24.5514 35.1875 24.5514H27.875C27.4263 24.5514 27.0625 24.1876 27.0625 23.7389Z" fill="#FFDC35"/>
</g>
<defs>
<filter id="filter0_d_29_170" x="0" y="0" width="49" height="49" filterUnits="userSpaceOnUse" color-interpolation-filters="sRGB">
<feFlood flood-opacity="0" result="BackgroundImageFix"/>
<feColorMatrix in="SourceAlpha" type="matrix" values="0 0 0 0 0 0 0 0 0 0 0 0 0 0 0 0 0 0 127 0" result="hardAlpha"/>
<feOffset dx="2" dy="2"/>
<feGaussianBlur stdDeviation="1"/>
<feComposite in2="hardAlpha" operator="out"/>
<feColorMatrix type="matrix" values="0 0 0 0 0 0 0 0 0 0 0 0 0 0 0 0 0 0 0.25 0"/>
<feBlend mode="normal" in2="BackgroundImageFix" result="effect1_dropShadow_29_170"/>
<feBlend mode="normal" in="SourceGraphic" in2="effect1_dropShadow_29_170" result="shape"/>
</filter>
<clipPath id="clip0_29_170">
<rect width="26" height="26" fill="white" transform="translate(10 9)"/>
</clipPath>
</defs>
</svg>
