<svg width="49" height="49" viewBox="0 0 49 49" fill="none" xmlns="http://www.w3.org/2000/svg">
<g filter="url(#filter0_d_29_61)">
<circle cx="22.5" cy="22.5" r="22.5" fill="#FFDC35"/>
<circle cx="22.1804" cy="22.1804" r="20.1804" fill="black"/>
</g>
<g clip-path="url(#clip0_29_61)">
<path d="M11.4793 12.2884C11.4793 12.4486 11.8852 17.1482 12.3872 22.7343C12.8785 28.3097 13.3057 33.0414 13.3164 33.2443L13.3485 33.6075L17.6742 34.8037L21.9893 36L22.8545 35.765C23.3244 35.6368 25.2577 35.1028 27.1589 34.5794C30.1068 33.7677 30.6088 33.5968 30.6515 33.4152C30.7049 33.1589 32.5207 12.5768 32.5207 12.235V12H11.4793V12.2884ZM28.6435 16.8278C28.6008 17.0841 28.3231 20.1175 28.024 23.5888C27.7143 27.0494 27.4579 29.9119 27.4366 29.9332C27.3939 29.9866 22.1495 31.4393 22 31.4393C21.8932 31.4393 19.0307 30.6595 17.0761 30.1041L16.5314 29.9439L16.4032 28.534C16.3391 27.7543 16.2537 26.8144 16.211 26.4406L16.1469 25.7784H17.482C18.988 25.7784 18.9453 25.757 18.9559 26.6862C18.9559 26.9212 18.988 27.2844 19.02 27.498L19.0841 27.8825L20.5474 28.267L22 28.6515L23.4419 28.267C24.2323 28.0534 24.8945 27.8718 24.8945 27.8718C24.9052 27.8611 24.9693 27.231 25.0334 26.4726C25.0975 25.7036 25.1722 24.9559 25.2043 24.785L25.2577 24.4967H16.0935L16.0401 24.251C16.008 24.1228 15.9439 23.5033 15.9012 22.8625L15.8264 21.7196H25.4499L25.514 20.9933C25.5567 20.5981 25.6208 19.9893 25.6529 19.6475C25.6956 19.2096 25.6849 19.0387 25.5995 19.0921C25.5354 19.1242 23.2604 19.1242 20.526 19.0814L15.5594 19.0174L15.4953 18.259C15.4526 17.8425 15.3992 17.2443 15.3672 16.9346L15.3031 16.3792H28.6969L28.6435 16.8278Z" fill="#FFDC35"/>
</g>
<defs>
<filter id="filter0_d_29_61" x="0" y="0" width="49" height="49" filterUnits="userSpaceOnUse" color-interpolation-filters="sRGB">
<feFlood flood-opacity="0" result="BackgroundImageFix"/>
<feColorMatrix in="SourceAlpha" type="matrix" values="0 0 0 0 0 0 0 0 0 0 0 0 0 0 0 0 0 0 127 0" result="hardAlpha"/>
<feOffset dx="2" dy="2"/>
<feGaussianBlur stdDeviation="1"/>
<feComposite in2="hardAlpha" operator="out"/>
<feColorMatrix type="matrix" values="0 0 0 0 0 0 0 0 0 0 0 0 0 0 0 0 0 0 0.25 0"/>
<feBlend mode="normal" in2="BackgroundImageFix" result="effect1_dropShadow_29_61"/>
<feBlend mode="normal" in="SourceGraphic" in2="effect1_dropShadow_29_61" result="shape"/>
</filter>
<clipPath id="clip0_29_61">
<rect width="24" height="24" fill="white" transform="translate(10 12)"/>
</clipPath>
</defs>
</svg>
