<svg width="49" height="49" viewBox="0 0 49 49" fill="none" xmlns="http://www.w3.org/2000/svg">
<g filter="url(#filter0_d_29_145)">
<circle cx="22.5" cy="22.5" r="22.5" fill="#FFDC35"/>
<circle cx="22.5" cy="22.5" r="20.1804" fill="black"/>
</g>
<path d="M24.0647 11.0234H20.1481V16.9955C19.563 16.8431 19.08 16.7922 18.444 16.7922C14.3496 16.7922 11.7043 19.3863 11.7043 23.3791C11.7043 27.5248 14.1969 29.6864 18.9784 29.6864C20.5799 29.6864 22.0553 29.5339 24.0647 29.1524V11.0234H24.0647ZM20.1481 26.4314C19.5885 26.5075 19.2325 26.5327 18.8003 26.5327C16.791 26.5327 15.6973 25.3886 15.6973 23.3029C15.6973 21.1666 16.8416 19.9459 18.8258 19.9459C19.3088 19.9459 19.6901 19.9967 20.1481 20.1492V26.4314ZM30.2957 11.0445V15.0629H26.379V11.0445H30.2957ZM26.379 17.0718H30.2957V26.1515C30.2957 29.2797 30.0666 30.78 29.3799 32.0773C28.7443 33.3237 27.905 34.1118 26.1753 34.9766L22.5383 33.2471C24.2675 32.4334 25.1076 31.7217 25.6413 30.6275C26.2007 29.5085 26.379 28.2114 26.379 24.8032V17.0718Z" fill="#FFDC35"/>
<defs>
<filter id="filter0_d_29_145" x="0" y="0" width="49" height="49" filterUnits="userSpaceOnUse" color-interpolation-filters="sRGB">
<feFlood flood-opacity="0" result="BackgroundImageFix"/>
<feColorMatrix in="SourceAlpha" type="matrix" values="0 0 0 0 0 0 0 0 0 0 0 0 0 0 0 0 0 0 127 0" result="hardAlpha"/>
<feOffset dx="2" dy="2"/>
<feGaussianBlur stdDeviation="1"/>
<feComposite in2="hardAlpha" operator="out"/>
<feColorMatrix type="matrix" values="0 0 0 0 0 0 0 0 0 0 0 0 0 0 0 0 0 0 0.25 0"/>
<feBlend mode="normal" in2="BackgroundImageFix" result="effect1_dropShadow_29_145"/>
<feBlend mode="normal" in="SourceGraphic" in2="effect1_dropShadow_29_145" result="shape"/>
</filter>
</defs>
</svg>
