<svg width="49" height="49" viewBox="0 0 49 49" fill="none" xmlns="http://www.w3.org/2000/svg">
<g filter="url(#filter0_d_29_201)">
<circle cx="22.5" cy="22.5" r="22.5" fill="#FFDC35"/>
<circle cx="22.5" cy="22.5" r="20.1804" fill="black"/>
</g>
<g clip-path="url(#clip0_29_201)">
<path d="M36 30.686C35.5925 30.8401 35.1426 30.8398 34.7354 30.6851C34.3281 30.5303 33.9915 30.2319 33.7892 29.846L29.7642 24.2798L29.1808 23.5017L24.5107 29.853C24.3205 30.2227 24.0022 30.5104 23.6153 30.6624C23.2283 30.8144 22.7993 30.8203 22.4083 30.679L28.426 22.6057L22.8283 15.3128C23.2308 15.1678 23.671 15.1659 24.0748 15.3074C24.4785 15.4489 24.8211 15.7252 25.045 16.0898L29.217 21.7248L33.4123 16.1132C33.604 15.7501 33.9224 15.4701 34.307 15.3264C34.6916 15.1827 35.1156 15.1854 35.4983 15.3338L33.326 18.2167L30.3837 22.0468C30.302 22.1197 30.2366 22.2091 30.1918 22.309C30.147 22.4089 30.1239 22.5172 30.1239 22.6267C30.1239 22.7362 30.147 22.8444 30.1918 22.9444C30.2366 23.0443 30.302 23.1336 30.3837 23.2065L35.9883 30.6872L36 30.686ZM8.00233 22.5053L8.49233 20.0845C9.83867 15.2977 15.3267 13.3062 19.102 16.2695C21.3128 18.0067 21.8647 20.466 21.7562 23.238H9.302C9.10017 28.1882 12.6725 31.1772 17.24 29.65C17.9804 29.3835 18.6432 28.9375 19.1689 28.3519C19.6946 27.7663 20.0669 27.0595 20.2523 26.2947C20.4938 25.5177 20.8917 25.3847 21.622 25.6087C21.5003 26.5565 21.1653 27.4643 20.6421 28.2639C20.1189 29.0635 19.4212 29.7341 18.6015 30.2252C17.2475 30.9658 15.694 31.2594 14.1631 31.0639C12.6322 30.8684 11.2023 30.1938 10.0778 29.1367C8.96603 27.8853 8.29409 26.3046 8.1645 24.6357C8.1645 24.3615 8.07117 24.1048 8.00817 23.8587C8.00249 23.408 7.99976 22.9572 8 22.5065L8.00233 22.5053ZM9.31717 22.1717H20.5802C20.5102 18.583 18.2457 16.0373 15.2252 16.014C11.8628 15.9673 9.45717 18.457 9.309 22.1553L9.31717 22.1717Z" fill="#FFDC35"/>
</g>
<defs>
<filter id="filter0_d_29_201" x="0" y="0" width="49" height="49" filterUnits="userSpaceOnUse" color-interpolation-filters="sRGB">
<feFlood flood-opacity="0" result="BackgroundImageFix"/>
<feColorMatrix in="SourceAlpha" type="matrix" values="0 0 0 0 0 0 0 0 0 0 0 0 0 0 0 0 0 0 127 0" result="hardAlpha"/>
<feOffset dx="2" dy="2"/>
<feGaussianBlur stdDeviation="1"/>
<feComposite in2="hardAlpha" operator="out"/>
<feColorMatrix type="matrix" values="0 0 0 0 0 0 0 0 0 0 0 0 0 0 0 0 0 0 0.25 0"/>
<feBlend mode="normal" in2="BackgroundImageFix" result="effect1_dropShadow_29_201"/>
<feBlend mode="normal" in="SourceGraphic" in2="effect1_dropShadow_29_201" result="shape"/>
</filter>
<clipPath id="clip0_29_201">
<rect width="28" height="28" fill="white" transform="translate(8 9)"/>
</clipPath>
</defs>
</svg>
