<svg width="49" height="49" viewBox="0 0 49 49" fill="none" xmlns="http://www.w3.org/2000/svg">
<g filter="url(#filter0_d_29_83)">
<circle cx="22.5" cy="22.5" r="22.5" fill="#FFDC35"/>
<circle cx="22.5" cy="22.5" r="20.1804" fill="black"/>
</g>
<g clip-path="url(#clip0_29_83)">
<path d="M28.1677 18.5605C29.2636 17.828 29.9912 16.5594 29.9912 15.121C29.9912 12.8519 28.1765 11.0115 25.9585 11.0115H19.0327C16.806 11.0115 15 12.8608 15 15.121C15 16.5594 15.7276 17.828 16.8235 18.5605C15.7276 19.2931 15 20.5617 15 22C15 23.4383 15.7276 24.7069 16.8235 25.4395C15.7276 26.172 15 27.4406 15 28.879C15 31.1481 16.8235 32.9885 19.059 32.9885C21.3209 32.9885 23.1619 31.1213 23.1619 28.8343V25.0375C23.8808 25.6986 24.8364 26.1095 25.8796 26.1095H25.9673C28.194 26.1095 30 24.2602 30 22C29.9912 20.5617 29.2636 19.2931 28.1677 18.5605ZM21.8381 28.8343C21.8381 30.3798 20.5932 31.6484 19.059 31.6484C17.5511 31.6484 16.3238 30.4066 16.3238 28.879C16.3238 27.3513 17.5424 26.1184 19.0327 26.1095H21.8381V28.8343ZM21.8381 24.7695H19.0327C17.5336 24.7695 16.3238 23.5277 16.3238 22C16.3238 20.4723 17.5424 19.2305 19.0415 19.2305H21.8469V24.7695H21.8381ZM21.8381 17.8905H19.0327C17.5336 17.8905 16.315 16.6487 16.315 15.121C16.315 13.5934 17.5336 12.3516 19.0327 12.3516H21.8381V17.8905ZM23.1531 12.3516H25.9585C27.4576 12.3516 28.6762 13.5934 28.6762 15.121C28.6762 16.6487 27.4576 17.8905 25.9585 17.8905H23.1531V12.3516ZM25.9585 24.7695H25.8708C24.3717 24.7695 23.1531 23.5277 23.1531 22C23.1531 20.4723 24.3717 19.2305 25.8708 19.2305H25.9585C27.4576 19.2305 28.6762 20.4723 28.6762 22C28.6762 23.5277 27.4576 24.7695 25.9585 24.7695Z" fill="#FFDC35"/>
</g>
<defs>
<filter id="filter0_d_29_83" x="0" y="0" width="49" height="49" filterUnits="userSpaceOnUse" color-interpolation-filters="sRGB">
<feFlood flood-opacity="0" result="BackgroundImageFix"/>
<feColorMatrix in="SourceAlpha" type="matrix" values="0 0 0 0 0 0 0 0 0 0 0 0 0 0 0 0 0 0 127 0" result="hardAlpha"/>
<feOffset dx="2" dy="2"/>
<feGaussianBlur stdDeviation="1"/>
<feComposite in2="hardAlpha" operator="out"/>
<feColorMatrix type="matrix" values="0 0 0 0 0 0 0 0 0 0 0 0 0 0 0 0 0 0 0.25 0"/>
<feBlend mode="normal" in2="BackgroundImageFix" result="effect1_dropShadow_29_83"/>
<feBlend mode="normal" in="SourceGraphic" in2="effect1_dropShadow_29_83" result="shape"/>
</filter>
<clipPath id="clip0_29_83">
<rect width="15" height="22" fill="white" transform="translate(15 11)"/>
</clipPath>
</defs>
</svg>
