<svg width="49" height="49" viewBox="0 0 49 49" fill="none" xmlns="http://www.w3.org/2000/svg">
<g filter="url(#filter0_d_29_153)">
<circle cx="22.5" cy="22.5" r="22.5" fill="#FFDC35"/>
<circle cx="22.5" cy="22.5" r="20.1804" fill="black"/>
</g>
<g clip-path="url(#clip0_29_153)">
<path d="M20.6684 20.2183L21.5679 23.0351H18.6322L19.5146 20.2183C19.7184 19.5396 19.888 18.7421 20.0575 18.0803H20.0915C20.2612 18.7421 20.4478 19.5226 20.6684 20.2183ZM33.9766 14.0156V29.9844C33.9766 32.1801 32.1801 33.9766 29.9844 33.9766H14.0156C11.8199 33.9766 10.0234 32.1801 10.0234 29.9844V14.0156C10.0234 11.8199 11.8199 10.0234 14.0156 10.0234H29.9844C32.1801 10.0234 33.9766 11.8199 33.9766 14.0156ZM25.199 27.854L21.4828 16.4176H18.8189L15.1538 27.854H17.3088L18.293 24.613H21.9242L22.9593 27.854H25.199ZM28.7275 19.5905H26.6234V27.854H28.7275V19.5905ZM28.8462 17.2829C28.8292 16.6381 28.3881 16.1461 27.6754 16.1461C26.9797 16.1461 26.5046 16.6381 26.5046 17.2829C26.5046 17.9108 26.9627 18.4028 27.6584 18.4028C28.3881 18.4027 28.8462 17.9107 28.8462 17.2829Z" fill="#FFDC35"/>
</g>
<defs>
<filter id="filter0_d_29_153" x="0" y="0" width="49" height="49" filterUnits="userSpaceOnUse" color-interpolation-filters="sRGB">
<feFlood flood-opacity="0" result="BackgroundImageFix"/>
<feColorMatrix in="SourceAlpha" type="matrix" values="0 0 0 0 0 0 0 0 0 0 0 0 0 0 0 0 0 0 127 0" result="hardAlpha"/>
<feOffset dx="2" dy="2"/>
<feGaussianBlur stdDeviation="1"/>
<feComposite in2="hardAlpha" operator="out"/>
<feColorMatrix type="matrix" values="0 0 0 0 0 0 0 0 0 0 0 0 0 0 0 0 0 0 0.25 0"/>
<feBlend mode="normal" in2="BackgroundImageFix" result="effect1_dropShadow_29_153"/>
<feBlend mode="normal" in="SourceGraphic" in2="effect1_dropShadow_29_153" result="shape"/>
</filter>
<clipPath id="clip0_29_153">
<rect width="24" height="24" fill="white" transform="translate(10 10)"/>
</clipPath>
</defs>
</svg>
