<svg width="49" height="49" viewBox="0 0 49 49" fill="none" xmlns="http://www.w3.org/2000/svg">
<g filter="url(#filter0_d_29_97)">
<circle cx="22.5" cy="22.5" r="22.5" fill="#FFDC35"/>
<circle cx="22.5" cy="22.5" r="20.1804" fill="black"/>
</g>
<path d="M22.2465 30.5499C22.0871 30.5138 21.9331 30.4639 21.7779 30.4182C21.7386 30.4065 21.6993 30.3948 21.6611 30.3831C21.5091 30.3364 21.3593 30.2875 21.2095 30.2354C21.1893 30.228 21.1681 30.2206 21.1479 30.2131C21.014 30.1653 20.8812 30.1164 20.7494 30.0654C20.7123 30.0506 20.6751 30.0367 20.6379 30.0219C20.4934 29.9645 20.3499 29.905 20.2076 29.8434C20.1789 29.8306 20.1502 29.8179 20.1215 29.8051C19.9993 29.7499 19.8793 29.6936 19.7592 29.6362C19.7241 29.6192 19.6901 29.6032 19.654 29.5862C19.5594 29.5406 19.4659 29.4906 19.3735 29.4439C19.3108 29.4109 19.2481 29.3801 19.1865 29.3461C19.0728 29.2845 18.9613 29.2218 18.8497 29.157C18.8125 29.1357 18.7743 29.1166 18.736 29.0943C18.5883 29.0082 18.4417 28.9179 18.2983 28.8266C18.2589 28.8011 18.2196 28.7734 18.1803 28.7479C18.0751 28.681 17.971 28.6119 17.869 28.5407C17.835 28.5184 17.8021 28.4929 17.7691 28.4706C17.6703 28.4005 17.5715 28.3304 17.4748 28.2581C17.4302 28.2252 17.3877 28.1922 17.3441 28.1593C17.2549 28.0913 17.1656 28.0222 17.0785 27.9511C17.0392 27.9192 16.9988 27.8873 16.9595 27.8554C16.8479 27.763 16.7374 27.6716 16.628 27.576C16.6163 27.5664 16.6036 27.5569 16.5919 27.5462C16.4739 27.4432 16.3581 27.3369 16.2434 27.2296C16.2104 27.1977 16.1775 27.1669 16.1456 27.1361C16.0606 27.0554 15.9778 26.9736 15.8959 26.8907C15.863 26.8577 15.8301 26.8259 15.7982 26.7929C15.6941 26.6856 15.5921 26.5772 15.4911 26.4678C15.4858 26.4625 15.4805 26.4572 15.4763 26.4519C15.37 26.3361 15.2669 26.2171 15.1649 26.097C15.1373 26.0641 15.1108 26.0332 15.0831 26.0003C15.0077 25.9089 14.9323 25.8165 14.8589 25.723C14.8313 25.6901 14.8037 25.655 14.7771 25.621C14.6889 25.5062 14.6029 25.3926 14.5189 25.2767C12.1846 22.0935 11.3463 17.7022 13.2121 14.0961L11.5588 16.1934C9.44019 19.2386 9.70369 23.2006 11.3219 26.4359C11.3601 26.5135 11.4005 26.59 11.4409 26.6665C11.4664 26.7143 11.4898 26.7642 11.5163 26.8121C11.5312 26.8407 11.5482 26.8684 11.5631 26.896C11.5907 26.9481 11.6194 26.9969 11.647 27.0469C11.6969 27.1351 11.749 27.2232 11.8011 27.3114C11.8298 27.3592 11.8595 27.4081 11.8893 27.4559C11.9477 27.5505 12.0072 27.6429 12.0688 27.7364C12.0943 27.7757 12.1188 27.8161 12.1453 27.8544C12.2303 27.9797 12.3164 28.1051 12.4046 28.2294C12.4067 28.2326 12.4099 28.2358 12.412 28.239C12.4258 28.2581 12.4418 28.2783 12.4556 28.2985C12.5321 28.4047 12.6118 28.5099 12.6925 28.613C12.7223 28.6512 12.752 28.6895 12.7818 28.7267C12.8529 28.817 12.9263 28.9062 13.0006 28.9955C13.0283 29.0284 13.0559 29.0624 13.0846 29.0954C13.1844 29.2122 13.2854 29.3291 13.3895 29.4439C13.3916 29.446 13.3938 29.4481 13.3959 29.4492C13.4001 29.4545 13.4044 29.4577 13.4076 29.463C13.5085 29.5735 13.6126 29.6819 13.7168 29.7892C13.7497 29.8232 13.7826 29.8561 13.8156 29.8891C13.8963 29.9709 13.9792 30.0516 14.0631 30.1313C14.0971 30.1632 14.1301 30.1961 14.1641 30.228C14.2756 30.3332 14.3883 30.4362 14.503 30.5372C14.5051 30.5382 14.5062 30.5404 14.5083 30.5414C14.5274 30.5584 14.5487 30.5754 14.5678 30.5914C14.6688 30.6785 14.7718 30.7656 14.8759 30.8517C14.9184 30.8857 14.9609 30.9197 15.0034 30.9537C15.0884 31.0217 15.1734 31.0886 15.2595 31.1545C15.3052 31.1896 15.3509 31.2246 15.3966 31.2586C15.4911 31.3287 15.5878 31.3978 15.6845 31.4647C15.7196 31.4902 15.7536 31.5147 15.7897 31.5391C15.7993 31.5455 15.8088 31.5529 15.8184 31.5593C15.9098 31.6231 16.0043 31.6826 16.0978 31.7442C16.1382 31.7707 16.1775 31.7984 16.2189 31.8249C16.3634 31.9163 16.509 32.0066 16.6567 32.0937C16.6971 32.1171 16.7374 32.1394 16.7778 32.1617C16.8862 32.2244 16.9956 32.2861 17.1061 32.3466C17.1656 32.3785 17.2273 32.4093 17.2878 32.4401C17.3654 32.4805 17.444 32.523 17.5226 32.5623C17.5407 32.5719 17.5598 32.5804 17.5768 32.5889C17.6087 32.6037 17.6406 32.6186 17.6735 32.6356C17.7968 32.6941 17.9211 32.7525 18.0464 32.8088C18.073 32.8205 18.0985 32.8322 18.1251 32.8439C18.2685 32.9066 18.413 32.9671 18.5596 33.0245C18.5947 33.0394 18.6298 33.0521 18.6659 33.0659C18.8008 33.118 18.9379 33.1701 19.076 33.2179C19.093 33.2242 19.11 33.2306 19.1281 33.2359C19.2789 33.2891 19.4319 33.3379 19.5849 33.3857C19.6211 33.3964 19.6583 33.4081 19.6954 33.4187C19.8516 33.4654 20.0068 33.5217 20.1683 33.5515C30.4139 35.4204 33.39 27.3943 33.39 27.3943C30.891 30.6509 26.454 31.5094 22.2497 30.5542L22.2465 30.5499ZM18.5554 22.2454C18.7849 22.5748 19.0399 22.9658 19.3438 23.2304C19.4543 23.3515 19.5701 23.4705 19.688 23.5874C19.7178 23.6182 19.7486 23.6469 19.7783 23.6766C19.8931 23.7882 20.0089 23.8966 20.1289 24.0028C20.1343 24.006 20.1385 24.0113 20.1438 24.0156L20.147 24.0187C20.2798 24.1356 20.4179 24.2482 20.5571 24.3577C20.5879 24.3811 20.6188 24.4066 20.6506 24.431C20.7909 24.5383 20.9333 24.6435 21.0799 24.7444C21.0841 24.7476 21.0884 24.7508 21.0926 24.754C21.1574 24.7986 21.2233 24.8401 21.2881 24.8836C21.32 24.9038 21.3498 24.9261 21.3816 24.9452C21.4858 25.0122 21.592 25.0781 21.6993 25.1397C21.7142 25.1492 21.7291 25.1567 21.7439 25.1652C21.8364 25.2194 21.9309 25.2714 22.0255 25.3224C22.0584 25.3416 22.0924 25.3575 22.1254 25.3745C22.1902 25.4085 22.2561 25.4425 22.3219 25.4765C22.3315 25.4807 22.3421 25.4861 22.3517 25.4892C22.4866 25.5562 22.6226 25.6199 22.7618 25.6805C22.7916 25.6932 22.8224 25.7049 22.8521 25.7177C22.9637 25.7655 23.0753 25.8112 23.1879 25.8547C23.2357 25.8728 23.2846 25.8898 23.3313 25.9079C23.4344 25.9461 23.5364 25.9812 23.6405 26.0152C23.6873 26.0301 23.7329 26.0449 23.7797 26.0598C23.9274 26.1055 24.0729 26.1639 24.2259 26.1894C32.1363 27.4995 33.9627 21.4092 33.9627 21.4092C32.3169 23.7807 29.1283 24.9112 25.7262 24.0283C25.5753 23.9879 25.4266 23.9454 25.2778 23.8987C25.2321 23.8849 25.1886 23.87 25.1429 23.8551C25.0377 23.8211 24.9336 23.785 24.8294 23.7467C24.7816 23.7287 24.7349 23.7117 24.6881 23.6936C24.5744 23.6501 24.4618 23.6044 24.3513 23.5576C24.3205 23.5438 24.2897 23.5321 24.2599 23.5194C24.1208 23.4588 23.9826 23.3951 23.8466 23.3281C23.7765 23.2941 23.7085 23.258 23.6394 23.2229C23.6001 23.2027 23.5598 23.1826 23.5204 23.1613C23.4323 23.1135 23.3451 23.0636 23.2591 23.0136C23.2389 23.0019 23.2166 22.9902 23.1964 22.9786C23.0891 22.9159 22.9839 22.8511 22.8787 22.7852C22.8468 22.765 22.8149 22.7427 22.7831 22.7214C22.714 22.6768 22.6449 22.6311 22.578 22.5854C22.4324 22.4845 22.2901 22.3793 22.1509 22.2731C22.119 22.2476 22.0861 22.2231 22.0542 22.1976C20.5656 21.0214 19.3852 19.4149 18.8231 17.5927C18.2345 15.7036 18.362 13.5818 19.3809 11.8606L18.1293 13.6275C16.5972 15.8322 16.6801 18.7838 17.8754 21.116C18.0762 21.507 18.3014 21.8863 18.5533 22.2476L18.5554 22.2454ZM26.8939 19.518C26.9587 19.5424 27.0246 19.5637 27.0904 19.586C27.1191 19.5945 27.1478 19.6051 27.1776 19.6136C27.2711 19.6423 27.3635 19.6774 27.4591 19.6944C31.8271 20.538 33.0118 17.4525 33.3273 16.9988C32.2893 18.4927 30.5457 18.8518 28.4058 18.3322C28.2369 18.2908 28.0509 18.2302 27.8873 18.1718C27.678 18.0974 27.4729 18.0124 27.2721 17.9168C26.8918 17.7341 26.5294 17.5131 26.1937 17.2591C24.2791 15.8067 23.0891 13.0346 24.3386 10.7768L23.6618 11.7086C22.7586 13.0378 22.6704 14.6889 23.2963 16.1562C23.9571 17.7149 25.3118 18.9368 26.8918 19.5169L26.8939 19.518Z" fill="#FFDC35"/>
<defs>
<filter id="filter0_d_29_97" x="0" y="0" width="49" height="49" filterUnits="userSpaceOnUse" color-interpolation-filters="sRGB">
<feFlood flood-opacity="0" result="BackgroundImageFix"/>
<feColorMatrix in="SourceAlpha" type="matrix" values="0 0 0 0 0 0 0 0 0 0 0 0 0 0 0 0 0 0 127 0" result="hardAlpha"/>
<feOffset dx="2" dy="2"/>
<feGaussianBlur stdDeviation="1"/>
<feComposite in2="hardAlpha" operator="out"/>
<feColorMatrix type="matrix" values="0 0 0 0 0 0 0 0 0 0 0 0 0 0 0 0 0 0 0.25 0"/>
<feBlend mode="normal" in2="BackgroundImageFix" result="effect1_dropShadow_29_97"/>
<feBlend mode="normal" in="SourceGraphic" in2="effect1_dropShadow_29_97" result="shape"/>
</filter>
</defs>
</svg>
