<svg width="49" height="49" viewBox="0 0 49 49" fill="none" xmlns="http://www.w3.org/2000/svg">
<g filter="url(#filter0_d_29_173)">
<circle cx="22.5" cy="22.5" r="22.5" fill="#FFDC35"/>
<circle cx="22.5" cy="22.5" r="20.1804" fill="black"/>
</g>
<g clip-path="url(#clip0_29_173)">
<path d="M36.1398 34.363L35.5894 33.8387C35.3175 33.4801 35.0283 33.1627 34.713 32.8734L34.7076 32.8691C34.384 32.5752 34.0478 32.2957 33.699 32.0306C33.4195 31.8385 33.0353 31.607 32.5463 31.3362C32.1444 31.1553 31.8302 30.8378 31.6602 30.4435L31.6558 30.4327L31.6038 30.4067C31.8335 30.3839 32.0437 30.3417 32.2452 30.2821L32.2202 30.2886L32.8377 30.1185C33.0934 30.0383 33.3892 29.9863 33.6957 29.9744H33.7023C34.0251 29.9614 34.3295 29.9094 34.6198 29.8238L34.5928 29.8303C34.7329 29.7957 34.8769 29.7563 35.025 29.7123C35.1731 29.6682 35.2998 29.6288 35.4053 29.5942V29.4111C35.3005 29.2544 35.1738 29.0753 35.025 28.8738C34.8831 28.6809 34.7238 28.513 34.5451 28.3668L34.5397 28.3624C34.0854 27.9609 33.6149 27.5723 33.1281 27.1968C32.6991 26.862 32.2127 26.5208 31.7078 26.2044L31.6342 26.1611C31.3677 25.9856 31.0622 25.8231 30.7404 25.6898L30.7036 25.6768C30.38 25.5454 30.0612 25.4013 29.747 25.2446C29.6419 25.1926 29.5195 25.1471 29.3927 25.1157L29.3808 25.1135C29.2541 25.0875 29.1458 25.0225 29.0667 24.9304L29.0656 24.9293C28.9161 24.7322 28.785 24.5079 28.681 24.2696L28.6723 24.2479C28.5676 24.0031 28.4542 23.768 28.3322 23.5427C28.07 23.0357 27.8165 22.5204 27.5717 21.9968C27.3268 21.4732 27.0918 20.9488 26.8664 20.4238C26.7097 20.0742 26.5656 19.725 26.4342 19.3762C26.289 18.9927 26.1254 18.6644 25.9347 18.3557L25.9488 18.3806C25.4808 17.5833 25.0139 16.9029 24.5069 16.2562L24.5372 16.2973C24.0357 15.6647 23.5157 15.0992 22.9567 14.5748L22.948 14.5673C22.3966 14.0494 21.8029 13.5554 21.18 13.0983L21.1269 13.0603C20.4798 12.5902 19.772 12.1272 19.0036 11.6715C18.6948 11.4895 18.3363 11.3411 17.9582 11.2458L17.93 11.2393L16.7243 10.9381L16.0428 10.8861C15.8161 10.8688 15.5889 10.8601 15.3614 10.8601C15.2011 10.7756 15.0635 10.6748 14.9422 10.5578C14.823 10.4441 14.6941 10.3368 14.5598 10.2383L14.5489 10.2307C13.8935 9.84827 13.1319 9.49835 12.3357 9.22318L12.2436 9.19502C12.0345 9.0726 11.7832 9.0011 11.5156 9.0011C11.3249 9.0011 11.1418 9.03793 10.975 9.10402L10.9847 9.10077C10.5731 9.26435 10.2589 9.59693 10.1235 10.0108L10.1202 10.0216C10.0412 10.2079 9.99567 10.4235 9.99567 10.651C9.99567 11.0497 10.1365 11.4148 10.3716 11.6997L10.3694 11.6964C10.7623 12.22 11.0635 12.6317 11.2729 12.9314C11.4296 13.1416 11.5914 13.3601 11.7582 13.5868C11.911 13.7905 12.0464 14.0234 12.1558 14.2693L12.1645 14.2921C12.2252 14.421 12.2782 14.5748 12.3172 14.733L12.3205 14.7503C12.3552 14.8991 12.3989 15.0609 12.4516 15.2357C12.6083 15.6372 12.7567 16.0489 12.8968 16.4707C13.0496 16.9311 13.2186 17.3211 13.4147 17.6927L13.3941 17.6493C13.4988 17.8415 13.6039 18.0292 13.7093 18.2127C13.8148 18.3961 13.9282 18.5752 14.0495 18.75C14.1199 18.8562 14.2088 18.9439 14.3106 19.0122L14.3138 19.0143C14.4211 19.0923 14.4915 19.2148 14.4969 19.3534C14.3734 19.5354 14.29 19.7543 14.2618 19.9893L14.2608 19.9958C14.2228 20.2699 14.1687 20.5137 14.095 20.7488L14.1037 20.7163C13.8621 21.4378 13.7234 22.2698 13.7234 23.1332C13.7234 23.4127 13.7375 23.6878 13.7667 23.9598L13.7635 23.9262C13.8285 24.964 14.1416 25.9173 14.6432 26.7428L14.628 26.7158C14.8414 27.0353 15.07 27.3138 15.3224 27.5683C15.5044 27.772 15.7688 27.8998 16.0634 27.8998C16.2281 27.8998 16.3841 27.8598 16.5206 27.7883L16.5152 27.7904C16.8943 27.6539 17.1641 27.3073 17.1836 26.8945V26.8923C17.2356 26.3788 17.3136 25.9195 17.4208 25.471L17.4068 25.5436C17.4328 25.4753 17.4479 25.3973 17.4479 25.315C17.4479 25.2988 17.4468 25.2825 17.4458 25.2663V25.2684C17.4371 25.1897 17.4851 25.1153 17.5898 25.0453V25.0973C17.6946 25.3421 17.8036 25.5866 17.917 25.8307C18.0304 26.0748 18.1481 26.3193 18.2702 26.5641C18.5898 27.0505 18.9288 27.4752 19.3015 27.8663L19.2983 27.863C19.672 28.266 20.0793 28.6278 20.5192 28.9474L20.543 28.9637C20.7727 29.1392 20.9742 29.3288 21.1562 29.5357L21.1605 29.54C21.3317 29.7415 21.5364 29.9073 21.7672 30.0318L21.778 30.0373V30.0113H21.83C21.7878 29.917 21.7195 29.8412 21.635 29.7892L21.6328 29.7881C21.5472 29.7404 21.4736 29.6928 21.4043 29.6408L21.4097 29.644C21.2529 29.4873 21.0912 29.3125 20.9243 29.1197C20.7575 28.9268 20.6048 28.7434 20.4661 28.5693C20.0992 28.0623 19.7493 27.5326 19.4163 26.9801C19.0834 26.4276 18.7689 25.8661 18.4728 25.2955C18.3326 25.016 18.1972 24.7278 18.0665 24.431C17.9358 24.1342 17.809 23.846 17.6863 23.5665C17.6332 23.4593 17.5963 23.3358 17.5823 23.2047V23.1993C17.5758 23.0747 17.5043 22.9674 17.4003 22.9122L17.3981 22.9111C17.267 23.1343 17.1218 23.3271 16.9561 23.5015L16.9572 23.5004C16.7849 23.6813 16.6441 23.8948 16.5433 24.1288L16.5379 24.1428C16.3852 24.5133 16.2736 24.9434 16.2248 25.393L16.2227 25.4136C16.1707 25.8765 16.1183 26.3525 16.0656 26.8414L16.0136 26.8674L15.9876 26.8934C15.7059 26.836 15.4741 26.6562 15.3484 26.4135L15.3463 26.4081C15.2148 26.1546 15.0971 25.9054 14.9931 25.6606C14.7244 24.9705 14.5576 24.1721 14.5348 23.3379V23.3282C14.5251 23.196 14.5208 23.0411 14.5208 22.8862C14.5208 22.1647 14.6345 21.4692 14.8447 20.817L14.8317 20.8647C14.8837 20.6726 14.9971 20.349 15.1718 19.894C15.3466 19.439 15.3816 19.1245 15.2769 18.9504C15.2228 18.7717 15.122 18.6211 14.9898 18.5063L14.9888 18.5052C14.8566 18.3903 14.7363 18.2701 14.6258 18.1423L14.6226 18.1379C14.5005 17.9617 14.3828 17.7739 14.2694 17.5746C14.156 17.3753 14.0556 17.1788 13.9683 16.9853C13.7895 16.5714 13.6064 16.0525 13.4547 15.5195L13.4309 15.4231C13.2587 14.811 13.0669 14.2932 12.8394 13.7948L12.8676 13.8642C12.7473 13.5912 12.6076 13.355 12.4451 13.1394L12.4516 13.1481C12.2754 12.9127 12.1179 12.6898 11.9792 12.4797C11.803 12.2529 11.6282 12.0344 11.4549 11.8243C11.2783 11.6108 11.1212 11.3703 10.9934 11.1125L10.9837 11.0908C10.9317 10.9858 10.8862 10.8633 10.8547 10.7366L10.8526 10.7247C10.8407 10.6868 10.8342 10.6423 10.8342 10.5979C10.8342 10.5091 10.8602 10.4257 10.9057 10.3563L10.9046 10.3585C10.9165 10.2978 10.9447 10.2448 10.9837 10.2014C11.0259 10.1635 11.0801 10.1353 11.1386 10.1234H11.1407C11.2328 10.0638 11.3444 10.0281 11.4657 10.0281C11.5567 10.0281 11.6445 10.0487 11.7214 10.0855L11.7182 10.0844C11.9554 10.1516 12.1472 10.2188 12.3346 10.2957L12.2956 10.2816C12.6271 10.4217 12.9329 10.5571 13.2132 10.6878C13.536 10.8417 13.8112 11.0042 14.0712 11.1851L14.0517 11.1721C14.1918 11.2595 14.3315 11.3555 14.4709 11.4603C14.6103 11.565 14.7587 11.6701 14.9162 11.7755H15.2834C15.5629 11.7755 15.8598 11.7889 16.1739 11.8156C16.4913 11.8405 16.7849 11.9001 17.0644 11.9933L17.0384 11.9857C17.5595 12.1406 18.0069 12.3237 18.4316 12.5436L18.3872 12.523C18.8154 12.7411 19.2217 12.9726 19.6059 13.2174C20.244 13.615 20.7954 14.0223 21.3143 14.4676L21.2959 14.4524C21.8376 14.9161 22.3294 15.3917 22.7909 15.8943L22.8018 15.9073C23.2524 16.3992 23.6825 16.9333 24.0758 17.4933L24.1093 17.5443C24.4712 18.0556 24.8363 18.6471 25.1645 19.2603L25.21 19.3523C25.2978 19.5192 25.3866 19.7239 25.4635 19.933L25.4754 19.9688C25.5455 20.1695 25.6238 20.3754 25.7105 20.5863C25.9026 21.0232 26.1084 21.4641 26.328 21.909C26.5476 22.3539 26.7534 22.7865 26.9455 23.2068L27.5218 24.4646C27.7244 24.9044 27.9508 25.2836 28.2141 25.6335L28.2022 25.6173C28.4221 25.8523 28.7157 26.017 29.045 26.0744L29.0537 26.0755C29.4523 26.1752 29.7882 26.2878 30.1132 26.4211L30.0622 26.4027C30.2172 26.4731 30.4165 26.5478 30.6213 26.6139L30.6646 26.6258C30.8943 26.6963 31.0936 26.7894 31.2767 26.9064L31.2669 26.901C31.6212 27.0993 31.9213 27.2943 32.2073 27.5066L32.1845 27.4903C32.4813 27.7085 32.7782 27.9143 33.075 28.1078C33.2151 28.2126 33.4502 28.3653 33.7803 28.5661C34.1103 28.7669 34.2851 28.9547 34.3046 29.1294C34.1811 29.1251 34.0348 29.1218 33.8886 29.1218C33.3556 29.1218 32.8313 29.1565 32.3178 29.2237L32.3784 29.2172C31.7977 29.2952 31.2712 29.4371 30.7762 29.6397L30.8195 29.6245C30.6971 29.6776 30.5508 29.7263 30.3992 29.7643L30.3786 29.7686C30.2248 29.7913 30.1056 29.9148 30.0904 30.0687C30.1565 30.151 30.2096 30.2474 30.2453 30.3514L30.2475 30.3579C30.2843 30.4684 30.3288 30.5638 30.3829 30.6526L30.3797 30.6461C30.5086 30.8747 30.6472 31.0718 30.8032 31.2538L30.7989 31.2484C30.9517 31.4369 31.1239 31.6005 31.3146 31.7403L31.3222 31.7457C31.4984 31.8858 31.6818 32.0299 31.8725 32.1779C32.0469 32.3144 32.2441 32.4488 32.4488 32.5701L32.4748 32.5842C32.7825 32.7727 33.14 32.9525 33.5127 33.1031L33.5625 33.1204C33.9677 33.2829 34.3154 33.4714 34.6383 33.6957L34.6209 33.6838C34.8311 33.8058 35.0405 33.9412 35.2492 34.09C35.458 34.2388 35.6588 34.3829 35.8516 34.5223C35.9307 34.6003 36 34.6869 36.0585 34.7812L36.0617 34.7866C36.1603 34.8993 36.2968 34.9762 36.4518 34.9957H36.455V34.9437C36.3597 34.8711 36.2893 34.7703 36.2557 34.6544L36.2546 34.6501C36.2275 34.5396 36.1874 34.4432 36.1332 34.3543L36.1354 34.3587L36.1398 34.363ZM16.0158 13.5576C15.8756 13.5576 15.7446 13.5619 15.6225 13.5706C15.4979 13.5793 15.382 13.602 15.2726 13.6388L15.2823 13.6356V13.6616H15.3343C15.4044 13.7663 15.4925 13.884 15.5987 14.0148C15.7048 14.1455 15.8009 14.2722 15.8868 14.395L16.3061 15.2595L16.3581 15.2335C16.4805 15.1447 16.5748 15.0255 16.6311 14.8858L16.6333 14.8803C16.6896 14.7298 16.7221 14.5543 16.7221 14.3723C16.7221 14.3528 16.7221 14.3333 16.721 14.3138V14.317C16.6723 14.2693 16.6322 14.213 16.604 14.1502L16.6029 14.1469L16.5152 13.9498C16.4578 13.8588 16.3776 13.7873 16.2833 13.7418L16.2801 13.7407C16.1783 13.6919 16.0916 13.6302 16.0158 13.5576Z" fill="#FFDC35"/>
</g>
<defs>
<filter id="filter0_d_29_173" x="0" y="0" width="49" height="49" filterUnits="userSpaceOnUse" color-interpolation-filters="sRGB">
<feFlood flood-opacity="0" result="BackgroundImageFix"/>
<feColorMatrix in="SourceAlpha" type="matrix" values="0 0 0 0 0 0 0 0 0 0 0 0 0 0 0 0 0 0 127 0" result="hardAlpha"/>
<feOffset dx="2" dy="2"/>
<feGaussianBlur stdDeviation="1"/>
<feComposite in2="hardAlpha" operator="out"/>
<feColorMatrix type="matrix" values="0 0 0 0 0 0 0 0 0 0 0 0 0 0 0 0 0 0 0.25 0"/>
<feBlend mode="normal" in2="BackgroundImageFix" result="effect1_dropShadow_29_173"/>
<feBlend mode="normal" in="SourceGraphic" in2="effect1_dropShadow_29_173" result="shape"/>
</filter>
<clipPath id="clip0_29_173">
<rect width="26" height="26" fill="white" transform="translate(10 9)"/>
</clipPath>
</defs>
</svg>
