<svg width="49" height="49" viewBox="0 0 49 49" fill="none" xmlns="http://www.w3.org/2000/svg">
<g filter="url(#filter0_d_29_89)">
<circle cx="22.5" cy="22.5" r="22.5" fill="#FFDC35"/>
<circle cx="22.5" cy="22.5" r="20.1804" fill="black"/>
</g>
<g clip-path="url(#clip0_29_89)">
<path d="M21.9199 9.33008C22.5724 8.96266 23.4223 8.961 24.0743 9.33008C27.3544 11.1532 30.6355 12.9735 33.915 14.7977C34.5318 15.1395 34.9444 15.8148 34.9381 16.5139V27.4826C34.9427 28.2107 34.4894 28.9021 33.8386 29.2361C30.5693 31.0492 27.3017 32.8645 24.033 34.6776C23.367 35.0522 22.5 35.0233 21.8547 34.618C20.8746 34.0591 19.8928 33.503 18.9126 32.9446C18.7123 32.8272 18.4865 32.7337 18.345 32.5426C18.4701 32.3769 18.6936 32.3562 18.8752 32.2838C19.2844 32.1559 19.6601 31.9504 20.036 31.7511C20.131 31.6871 20.2471 31.7117 20.3382 31.7689C21.1763 32.2416 22.007 32.728 22.848 33.1962C23.0274 33.2981 23.209 33.1629 23.3624 33.0788C26.5705 31.2952 29.7826 29.5183 32.9903 27.7342C33.1091 27.678 33.1748 27.5539 33.1652 27.4258C33.1674 23.8075 33.1657 20.1885 33.1663 16.5702C33.1799 16.4248 33.0944 16.2913 32.9608 16.2318C29.7029 14.427 26.4466 12.6194 23.1892 10.8142C23.1328 10.776 23.066 10.7556 22.9975 10.7555C22.929 10.7554 22.8621 10.7756 22.8055 10.8136C19.5481 12.6194 16.2924 14.4287 13.0351 16.2334C12.902 16.2929 12.8126 16.4243 12.8285 16.5702C12.829 20.1885 12.8285 23.8075 12.8285 27.4264C12.8228 27.4888 12.8368 27.5515 12.8685 27.606C12.9001 27.6604 12.948 27.704 13.0056 27.7309C13.8749 28.2158 14.7452 28.6972 15.6151 29.1804C16.1051 29.4399 16.7067 29.594 17.2466 29.3953C17.723 29.2272 18.057 28.7489 18.0479 28.2513C18.0524 24.6541 18.0456 21.0564 18.0513 17.4597C18.0394 17.3 18.1934 17.1681 18.3512 17.1831C18.7689 17.1803 19.1871 17.1776 19.6047 17.1842C19.7791 17.1803 19.8991 17.3523 19.8775 17.5132C19.8758 21.1332 19.882 24.7532 19.8747 28.3732C19.8758 29.338 19.4729 30.3878 18.5657 30.8598C17.448 31.4293 16.0666 31.3086 14.9625 30.7625C14.0067 30.2932 13.0945 29.7393 12.1556 29.2366C11.5031 28.9044 11.052 28.2102 11.0566 27.4827V16.5139C11.0498 15.8003 11.4788 15.1128 12.1148 14.776C15.3835 12.9614 18.6517 11.1455 21.9199 9.33008Z" fill="#FFDC35"/>
<path d="M24.7715 16.9282C26.1971 16.8379 27.7233 16.8747 29.0062 17.5655C29.9994 18.0949 30.5501 19.206 30.5676 20.2915C30.5399 20.4379 30.3843 20.5187 30.2422 20.5086C29.8286 20.5081 29.4148 20.5141 29.0012 20.5058C28.8258 20.5125 28.7238 20.3533 28.7018 20.2008C28.5829 19.6814 28.295 19.167 27.798 18.9165C27.0351 18.5408 26.1506 18.5597 25.3188 18.5675C24.7115 18.5993 24.0585 18.651 23.544 19.0023C23.149 19.2683 23.0291 19.8055 23.17 20.2381C23.3029 20.5487 23.6674 20.6489 23.9657 20.7413C25.6838 21.1833 27.5044 21.1393 29.1896 21.721C29.8873 21.9581 30.5699 22.4191 30.8087 23.1377C31.1211 24.1008 30.9842 25.252 30.2876 26.0252C29.7227 26.6615 28.8999 27.0078 28.0793 27.1959C26.9876 27.4353 25.8547 27.4414 24.7461 27.3351C23.7036 27.2182 22.6188 26.9488 21.814 26.2501C21.1259 25.6623 20.7898 24.7465 20.8231 23.8626C20.8311 23.7133 20.9822 23.6092 21.1276 23.6215C21.5441 23.6182 21.9606 23.6171 22.3772 23.6221C22.5435 23.6103 22.6669 23.7518 22.6754 23.906C22.7523 24.4009 22.9413 24.9202 23.38 25.2136C24.2265 25.7508 25.2888 25.714 26.2581 25.7291C27.0612 25.694 27.9627 25.6834 28.6181 25.1613C28.9638 24.8635 29.0663 24.3653 28.9728 23.9366C28.8716 23.5748 28.4867 23.4061 28.1562 23.2959C26.4602 22.7681 24.6193 22.9596 22.9396 22.3628C22.2578 22.1258 21.5984 21.6776 21.3364 20.9885C20.9708 20.0132 21.1383 18.8069 21.908 18.0598C22.6584 17.3167 23.7416 17.0306 24.7715 16.9282Z" fill="#FFDC35"/>
</g>
<defs>
<filter id="filter0_d_29_89" x="0" y="0" width="49" height="49" filterUnits="userSpaceOnUse" color-interpolation-filters="sRGB">
<feFlood flood-opacity="0" result="BackgroundImageFix"/>
<feColorMatrix in="SourceAlpha" type="matrix" values="0 0 0 0 0 0 0 0 0 0 0 0 0 0 0 0 0 0 127 0" result="hardAlpha"/>
<feOffset dx="2" dy="2"/>
<feGaussianBlur stdDeviation="1"/>
<feComposite in2="hardAlpha" operator="out"/>
<feColorMatrix type="matrix" values="0 0 0 0 0 0 0 0 0 0 0 0 0 0 0 0 0 0 0.25 0"/>
<feBlend mode="normal" in2="BackgroundImageFix" result="effect1_dropShadow_29_89"/>
<feBlend mode="normal" in="SourceGraphic" in2="effect1_dropShadow_29_89" result="shape"/>
</filter>
<clipPath id="clip0_29_89">
<rect width="24" height="26" fill="white" transform="translate(11 9)"/>
</clipPath>
</defs>
</svg>
