<svg width="49" height="49" viewBox="0 0 49 49" fill="none" xmlns="http://www.w3.org/2000/svg">
<g filter="url(#filter0_d_29_149)">
<circle cx="22.5" cy="22.5" r="22.5" fill="#FFDC35"/>
<circle cx="22.5" cy="22.5" r="20.1804" fill="black"/>
</g>
<g clip-path="url(#clip0_29_149)">
<path d="M29.9844 10.0234H14.0156C11.8199 10.0234 10.0234 11.8199 10.0234 14.0156V29.9844C10.0234 32.1801 11.8199 33.9766 14.0156 33.9766H29.9844C32.1801 33.9766 33.9766 32.1801 33.9766 29.9844V14.0156C33.9766 11.8199 32.1801 10.0234 29.9844 10.0234ZM21.4998 22.2121C20.6684 23.0434 19.3618 23.4339 17.8856 23.4339C17.4953 23.4339 17.139 23.4168 16.8675 23.3658V27.6758H14.7975V16.392C15.5441 16.2563 16.5792 16.1544 17.9874 16.1544C19.5146 16.1544 20.6345 16.4768 21.3642 17.0877C22.0429 17.6478 22.484 18.547 22.484 19.616C22.484 20.702 22.1447 21.6012 21.4998 22.2121ZM25.8429 27.8456C24.8417 27.8456 23.9425 27.608 23.3316 27.2686L23.7388 25.7584C24.2139 26.0469 25.1132 26.3524 25.8598 26.3524C26.776 26.3524 27.1834 25.9791 27.1834 25.436C27.1834 24.8762 26.8441 24.5876 25.8259 24.2313C24.2138 23.6713 23.5353 22.789 23.5522 21.8218C23.5522 20.3626 24.7569 19.2257 26.6743 19.2257C27.5906 19.2257 28.3881 19.4634 28.8631 19.7177L28.4559 21.194C28.0996 20.9905 27.4377 20.7189 26.7082 20.7189C25.9615 20.7189 25.5543 21.0753 25.5543 21.5842C25.5543 22.1103 25.9446 22.3649 26.9967 22.7382C28.4898 23.2811 29.1856 24.0446 29.2025 25.2665C29.2025 26.7596 28.0318 27.8456 25.8429 27.8456ZM20.3969 19.7008C20.3969 21.0413 19.4466 21.8049 17.8856 21.8049C17.4614 21.8049 17.122 21.7879 16.8675 21.7201V17.8513C17.0882 17.8004 17.4954 17.7495 18.0723 17.7495C19.5146 17.7495 20.3969 18.4283 20.3969 19.7008Z" fill="#FFDC35"/>
</g>
<defs>
<filter id="filter0_d_29_149" x="0" y="0" width="49" height="49" filterUnits="userSpaceOnUse" color-interpolation-filters="sRGB">
<feFlood flood-opacity="0" result="BackgroundImageFix"/>
<feColorMatrix in="SourceAlpha" type="matrix" values="0 0 0 0 0 0 0 0 0 0 0 0 0 0 0 0 0 0 127 0" result="hardAlpha"/>
<feOffset dx="2" dy="2"/>
<feGaussianBlur stdDeviation="1"/>
<feComposite in2="hardAlpha" operator="out"/>
<feColorMatrix type="matrix" values="0 0 0 0 0 0 0 0 0 0 0 0 0 0 0 0 0 0 0.25 0"/>
<feBlend mode="normal" in2="BackgroundImageFix" result="effect1_dropShadow_29_149"/>
<feBlend mode="normal" in="SourceGraphic" in2="effect1_dropShadow_29_149" result="shape"/>
</filter>
<clipPath id="clip0_29_149">
<rect width="24" height="24" fill="white" transform="translate(10 10)"/>
</clipPath>
</defs>
</svg>
