<svg width="49" height="49" viewBox="0 0 49 49" fill="none" xmlns="http://www.w3.org/2000/svg">
<g filter="url(#filter0_d_29_144)">
<circle cx="22.5" cy="22.5" r="22.5" fill="#FFDC35"/>
<circle cx="22.5" cy="22.5" r="20.1804" fill="black"/>
</g>
<path d="M17.3977 19.1767C16.7887 18.4795 15.8197 18.1309 14.4913 18.1309H10.0759L8.02734 28.6713H10.3233L10.868 25.8691H12.8348C13.7026 25.8691 14.4165 25.7781 14.977 25.5955C15.5374 25.4134 16.0468 25.1077 16.5053 24.6785C16.8901 24.3249 17.2012 23.9348 17.4397 23.5082C17.6778 23.0818 17.847 22.6113 17.9471 22.0966C18.1901 20.8471 18.0067 19.874 17.3977 19.1767ZM15.5738 21.9356C15.4151 22.7514 15.1094 23.3336 14.6565 23.6824C14.2032 24.0313 13.5136 24.2057 12.5881 24.2057H11.1912L12.0486 19.7942H13.6219C14.4943 19.7942 15.0756 19.9552 15.3662 20.2772C15.6566 20.5995 15.726 21.1522 15.5738 21.9356ZM26.475 20.9642L25.5218 25.8691H23.2076L24.1139 21.2054C24.2169 20.6749 24.1791 20.3129 23.9999 20.1201C23.821 19.9271 23.4398 19.8304 22.857 19.8304H21.0365L19.863 25.8691H17.5849L19.6335 15.3287H21.9116L21.3669 18.1309H23.3964C24.6732 18.1309 25.554 18.3539 26.0388 18.7991C26.5236 19.2446 26.6687 19.9663 26.475 20.9642ZM35.3194 19.1767C34.7103 18.4795 33.7413 18.1309 32.4132 18.1309H27.9978L25.9492 28.6713H28.2452L28.7899 25.8691H30.7566C31.6245 25.8691 32.3381 25.7781 32.8987 25.5955C33.4591 25.4134 33.9685 25.1077 34.4269 24.6785C34.8117 24.3249 35.123 23.9348 35.3614 23.5082C35.5995 23.0818 35.7687 22.6113 35.8688 22.0966C36.1117 20.8471 35.9286 19.874 35.3194 19.1767ZM33.4956 21.9356C33.3369 22.7514 33.0313 23.3336 32.578 23.6824C32.125 24.0313 31.4353 24.2057 30.5097 24.2057H29.1131L29.9705 19.7942H31.5436C32.4159 19.7942 32.9972 19.9552 33.288 20.2772C33.5784 20.5995 33.6476 21.1522 33.4956 21.9356Z" fill="#FFDC35"/>
<defs>
<filter id="filter0_d_29_144" x="0" y="0" width="49" height="49" filterUnits="userSpaceOnUse" color-interpolation-filters="sRGB">
<feFlood flood-opacity="0" result="BackgroundImageFix"/>
<feColorMatrix in="SourceAlpha" type="matrix" values="0 0 0 0 0 0 0 0 0 0 0 0 0 0 0 0 0 0 127 0" result="hardAlpha"/>
<feOffset dx="2" dy="2"/>
<feGaussianBlur stdDeviation="1"/>
<feComposite in2="hardAlpha" operator="out"/>
<feColorMatrix type="matrix" values="0 0 0 0 0 0 0 0 0 0 0 0 0 0 0 0 0 0 0.25 0"/>
<feBlend mode="normal" in2="BackgroundImageFix" result="effect1_dropShadow_29_144"/>
<feBlend mode="normal" in="SourceGraphic" in2="effect1_dropShadow_29_144" result="shape"/>
</filter>
</defs>
</svg>
