<svg width="49" height="49" viewBox="0 0 49 49" fill="none" xmlns="http://www.w3.org/2000/svg">
<g filter="url(#filter0_d_29_75)">
<circle cx="22.5" cy="22.5" r="22.5" fill="#FFDC35"/>
<circle cx="22.5" cy="22.5" r="20.1804" fill="black"/>
</g>
<path d="M35 22.0027C35 20.2586 32.8431 18.6057 29.5361 17.5807C30.2992 14.1676 29.96 11.4522 28.4656 10.5828C28.1211 10.3789 27.7183 10.2823 27.2784 10.2823V11.479C27.5222 11.479 27.7183 11.5273 27.8826 11.6185C28.6033 12.0371 28.916 13.631 28.6722 15.681C28.6139 16.1854 28.5185 16.7167 28.402 17.2587C27.3632 17.0011 26.2291 16.8026 25.0367 16.6738C24.3212 15.681 23.5793 14.7794 22.832 13.9905C24.5597 12.3645 26.1814 11.4736 27.2837 11.4736V10.2769C25.8263 10.2769 23.9185 11.3287 21.9894 13.1533C20.0603 11.3395 18.1525 10.2984 16.6951 10.2984V11.4951C17.7921 11.4951 19.4191 12.3806 21.1468 13.9959C20.4048 14.7848 19.6629 15.681 18.958 16.6738C17.7603 16.8026 16.6262 17.0011 15.5874 17.2641C15.4656 16.7274 15.3755 16.2069 15.3119 15.7078C15.0628 13.6578 15.3702 12.0639 16.0856 11.64C16.2446 11.5434 16.4513 11.5005 16.6951 11.5005V10.3037C16.2499 10.3037 15.8471 10.4003 15.4974 10.6043C14.0082 11.4736 13.6743 14.1837 14.4427 17.5861C11.1464 18.6164 9 20.2639 9 22.0027C9 23.7468 11.157 25.3997 14.4639 26.4247C13.7008 29.8378 14.04 32.5532 15.5344 33.4226C15.8789 33.6265 16.2817 33.7231 16.7269 33.7231C18.1843 33.7231 20.0921 32.6713 22.0212 30.8467C23.9503 32.6605 25.8581 33.7016 27.3155 33.7016C27.7607 33.7016 28.1635 33.605 28.5133 33.4011C30.0024 32.5317 30.3363 29.8217 29.5679 26.4193C32.8536 25.3943 35 23.7414 35 22.0027ZM28.0999 18.4232C27.9038 19.1155 27.66 19.8293 27.3844 20.543C27.1671 20.1137 26.9393 19.6844 26.6902 19.255C26.4464 18.8257 26.1867 18.4071 25.927 17.9993C26.6796 18.112 27.4056 18.2515 28.0999 18.4232ZM25.6726 24.1385C25.2593 24.863 24.8353 25.5499 24.3954 26.1885C23.6058 26.2583 22.8055 26.2959 22 26.2959C21.1998 26.2959 20.3995 26.2583 19.6152 26.1939C19.1753 25.5553 18.746 24.8738 18.3327 24.1546C17.9299 23.4516 17.5642 22.7379 17.2303 22.0188C17.5589 21.2997 17.9299 20.5806 18.3274 19.8776C18.7407 19.1531 19.1647 18.4662 19.6046 17.8276C20.3942 17.7578 21.1945 17.7202 22 17.7202C22.8002 17.7202 23.6005 17.7578 24.3848 17.8222C24.8247 18.4608 25.254 19.1423 25.6673 19.8615C26.0701 20.5645 26.4358 21.2782 26.7697 21.9973C26.4358 22.7164 26.0701 23.4355 25.6726 24.1385ZM27.3844 23.4409C27.6706 24.16 27.9144 24.8791 28.1158 25.5768C27.4215 25.7485 26.6902 25.8934 25.9323 26.0061C26.192 25.5929 26.4517 25.1689 26.6955 24.7342C26.9393 24.3049 27.1671 23.8702 27.3844 23.4409ZM22.0106 29.1669C21.5177 28.6518 21.0249 28.0775 20.5373 27.4497C21.0143 27.4711 21.5018 27.4872 21.9947 27.4872C22.4929 27.4872 22.9857 27.4765 23.468 27.4497C22.991 28.0775 22.4982 28.6518 22.0106 29.1669ZM18.0677 26.0061C17.3151 25.8934 16.5891 25.7539 15.8948 25.5821C16.0909 24.8899 16.3347 24.1761 16.6103 23.4624C16.8276 23.8917 17.0554 24.321 17.3045 24.7503C17.5536 25.1796 17.808 25.5982 18.0677 26.0061ZM21.9841 14.8384C22.477 15.3536 22.9698 15.9278 23.4574 16.5557C22.9804 16.5342 22.4929 16.5181 22 16.5181C21.5018 16.5181 21.009 16.5289 20.5267 16.5557C21.0037 15.9278 21.4965 15.3536 21.9841 14.8384ZM18.0624 17.9993C17.8027 18.4125 17.543 18.8365 17.2992 19.2711C17.0554 19.7005 16.8276 20.1298 16.6103 20.5591C16.3241 19.84 16.0803 19.1209 15.8789 18.4232C16.5732 18.2569 17.3045 18.112 18.0624 17.9993ZM13.2662 24.7181C11.3901 23.9078 10.1765 22.8452 10.1765 22.0027C10.1765 21.1601 11.3901 20.0922 13.2662 19.2872C13.722 19.0887 14.2201 18.9116 14.7342 18.7452C15.0363 19.7971 15.4338 20.8918 15.9266 22.0134C15.4391 23.1296 15.0469 24.219 14.7501 25.2655C14.2254 25.0991 13.7273 24.9167 13.2662 24.7181ZM16.1174 32.3868C15.3967 31.9683 15.084 30.3744 15.3278 28.3244C15.3861 27.82 15.4815 27.2887 15.598 26.7467C16.6368 27.0043 17.7709 27.2028 18.9633 27.3316C19.6788 28.3244 20.4207 29.226 21.168 30.0149C19.4403 31.6409 17.8186 32.5317 16.7163 32.5317C16.4778 32.5264 16.2764 32.4781 16.1174 32.3868ZM28.6881 28.2976C28.9372 30.3476 28.6298 31.9414 27.9144 32.3654C27.7554 32.462 27.5487 32.5049 27.3049 32.5049C26.2079 32.5049 24.5809 31.6194 22.8532 30.0041C23.5952 29.2152 24.3371 28.319 25.042 27.3262C26.2397 27.1974 27.3738 26.9989 28.4126 26.7359C28.5344 27.2779 28.6298 27.7985 28.6881 28.2976ZM30.7285 24.7181C30.2727 24.9167 29.7746 25.0938 29.2605 25.2601C28.9584 24.2083 28.5609 23.1135 28.0681 21.9919C28.5556 20.8757 28.9478 19.7863 29.2446 18.7399C29.7693 18.9062 30.2674 19.0887 30.7338 19.2872C32.6099 20.0976 33.8235 21.1601 33.8235 22.0027C33.8182 22.8452 32.6046 23.9132 30.7285 24.7181Z" fill="#FFDC35"/>
<path d="M21.9947 24.4552C23.3323 24.4552 24.4166 23.3572 24.4166 22.0027C24.4166 20.6482 23.3323 19.5502 21.9947 19.5502C20.6571 19.5502 19.5728 20.6482 19.5728 22.0027C19.5728 23.3572 20.6571 24.4552 21.9947 24.4552Z" fill="#FFDC35"/>
<defs>
<filter id="filter0_d_29_75" x="0" y="0" width="49" height="49" filterUnits="userSpaceOnUse" color-interpolation-filters="sRGB">
<feFlood flood-opacity="0" result="BackgroundImageFix"/>
<feColorMatrix in="SourceAlpha" type="matrix" values="0 0 0 0 0 0 0 0 0 0 0 0 0 0 0 0 0 0 127 0" result="hardAlpha"/>
<feOffset dx="2" dy="2"/>
<feGaussianBlur stdDeviation="1"/>
<feComposite in2="hardAlpha" operator="out"/>
<feColorMatrix type="matrix" values="0 0 0 0 0 0 0 0 0 0 0 0 0 0 0 0 0 0 0.25 0"/>
<feBlend mode="normal" in2="BackgroundImageFix" result="effect1_dropShadow_29_75"/>
<feBlend mode="normal" in="SourceGraphic" in2="effect1_dropShadow_29_75" result="shape"/>
</filter>
</defs>
</svg>
