<svg width="160" height="160" viewBox="0 0 160 160" fill="none" xmlns="http://www.w3.org/2000/svg">
<g clip-path="url(#clip0_6_2)">
<path d="M88.0302 83.4712H71.9474C71.6328 83.4712 71.3777 83.2161 71.3777 82.9015V72.9078C71.3777 72.5533 71.665 72.2659 72.0196 72.2659H87.9578C88.3123 72.2659 88.5997 72.5533 88.5997 72.9078V82.9015C88.5999 83.2161 88.3448 83.4712 88.0302 83.4712ZM72.4488 82.3999H87.5286V73.337H72.4488V82.3999Z" fill="#4E4E4E"/>
<path d="M89.8155 86.6507L88.792 83.9737C88.6763 83.671 88.3859 83.471 88.0616 83.471H71.9158C71.5917 83.471 71.3011 83.671 71.1854 83.9737L70.1621 86.6507C69.9665 87.1626 70.3443 87.7117 70.8925 87.7117H89.0851C89.633 87.7117 90.0111 87.1626 89.8155 86.6507ZM77.797 86.5251L78.1526 85.6887C78.1869 85.6079 78.2661 85.5555 78.3539 85.5555H81.6234C81.7112 85.5555 81.7905 85.6079 81.8247 85.6887L82.1804 86.5251C82.2416 86.6694 82.1358 86.8296 81.9791 86.8296H77.9985C77.8416 86.8296 77.7357 86.6696 77.797 86.5251Z" fill="#4E4E4E"/>
<g clip-path="url(#clip1_6_2)">
<path d="M168.469 78.7735C167.496 77.7461 166.18 77.1801 164.765 77.1801H161.438V75.9262C161.438 75.805 161.34 75.7066 161.218 75.7066H160.288V75.3876C160.288 75.0353 160.575 74.7486 160.927 74.7486H162.257C162.851 74.7486 163.335 74.265 163.335 73.6705C163.335 73.076 162.851 72.5921 162.257 72.5921H157.644C157.523 72.5921 157.424 72.6905 157.424 72.8117C157.424 72.9328 157.523 73.0312 157.644 73.0312H162.257C162.609 73.0312 162.896 73.3179 162.896 73.6705C162.896 74.0228 162.609 74.3095 162.257 74.3095H160.927C160.333 74.3095 159.849 74.7932 159.849 75.3876V75.7066H158.919C158.798 75.7066 158.699 75.805 158.699 75.9262V77.1801H155.323C152.641 77.1801 150.36 79.218 150.131 81.8197C150.002 83.2717 150.47 84.6593 151.448 85.7273C152.413 86.7811 153.785 87.3852 155.212 87.3852C156.351 87.3852 157.428 87.0182 158.327 86.324C159.301 85.5713 160.675 85.5765 161.666 86.3359C162.562 87.0228 163.633 87.3852 164.765 87.3852C164.773 87.3852 164.781 87.3852 164.789 87.3852C167.443 87.373 169.718 85.2101 169.86 82.5641C169.936 81.1464 169.442 79.8002 168.469 78.7735ZM159.139 76.1459H160.999V77.1803H159.139V76.1459ZM169.421 82.5404C169.291 84.9585 167.212 86.935 164.787 86.9462C164.78 86.9462 164.772 86.9462 164.765 86.9462C163.731 86.9462 162.752 86.6149 161.933 85.9873C161.356 85.5449 160.667 85.3241 159.98 85.3241C159.3 85.3241 158.622 85.5414 158.058 85.977C157.237 86.6112 156.253 86.9464 155.212 86.9464C153.908 86.9464 152.654 86.3941 151.772 85.4312C150.878 84.4552 150.451 83.1865 150.568 81.8588C150.777 79.4817 152.866 77.6196 155.322 77.6196H158.919H161.218H164.765C166.058 77.6196 167.261 78.1368 168.151 79.0758C169.04 80.0138 169.491 81.2445 169.421 82.5404Z" fill="#4E4E4E"/>
<path d="M158.155 81.221H156.582V79.6483C156.582 79.5271 156.484 79.4288 156.363 79.4288H154.678C154.557 79.4288 154.459 79.5271 154.459 79.6483V81.221H152.886C152.765 81.221 152.667 81.3192 152.667 81.4406V83.1248C152.667 83.2462 152.765 83.3443 152.886 83.3443H154.459V84.9171C154.459 85.0385 154.557 85.1366 154.678 85.1366H156.363C156.484 85.1366 156.582 85.0385 156.582 84.9171V83.3443H158.155C158.276 83.3443 158.374 83.2462 158.374 83.1248V81.4406C158.374 81.3192 158.276 81.221 158.155 81.221ZM157.935 82.9053H156.363C156.241 82.9053 156.143 83.0034 156.143 83.1248V84.6975H154.898V83.1248C154.898 83.0034 154.8 82.9053 154.678 82.9053H153.106V81.6601H154.678C154.8 81.6601 154.898 81.562 154.898 81.4406V79.8678H156.143V81.4406C156.143 81.562 156.241 81.6601 156.363 81.6601H157.935V82.9053Z" fill="#4E4E4E"/>
</g>
<path d="M8.46928 78.7735C7.49566 77.7461 6.18023 77.1801 4.76491 77.1801H1.4377V75.9262C1.4377 75.805 1.33957 75.7066 1.21817 75.7066H0.288233V75.3876C0.288233 75.0353 0.574941 74.7486 0.927289 74.7486H2.25699C2.85148 74.7486 3.33511 74.265 3.33511 73.6705C3.33511 73.076 2.85148 72.5921 2.25699 72.5921H-2.35624C-2.47742 72.5921 -2.57577 72.6905 -2.57577 72.8117C-2.57577 72.9328 -2.47742 73.0312 -2.35624 73.0312H2.25699C2.60934 73.0312 2.89605 73.3179 2.89605 73.6705C2.89605 74.0228 2.60934 74.3095 2.25699 74.3095H0.927289C0.332798 74.3095 -0.15083 74.7932 -0.15083 75.3876V75.7066H-1.08098C-1.20216 75.7066 -1.30051 75.805 -1.30051 75.9262V77.1801H-4.67712C-7.35914 77.1801 -9.63985 79.218 -9.86926 81.8197C-9.99768 83.2717 -9.52964 84.6593 -8.55163 85.7273C-7.58701 86.7811 -6.21516 87.3852 -4.78755 87.3852C-3.64928 87.3852 -2.57226 87.0182 -1.67328 86.324C-0.69856 85.5713 0.675047 85.5765 1.66579 86.3359C2.56214 87.0228 3.63323 87.3852 4.76469 87.3852C4.7726 87.3852 4.78072 87.3852 4.78884 87.3852C7.44276 87.373 9.71754 85.2101 9.85979 82.5641C9.93597 81.1464 9.44225 79.8002 8.46928 78.7735ZM-0.861452 76.1459H0.998636V77.1803H-0.861452V76.1459ZM9.42139 82.5404C9.29143 84.9585 7.21247 86.935 4.78687 86.9462C4.77962 86.9462 4.77238 86.9462 4.76469 86.9462C3.7307 86.9462 2.75181 86.6149 1.93296 85.9873C1.35581 85.5449 0.667145 85.3241 -0.0195491 85.3241C-0.700096 85.3241 -1.37801 85.5414 -1.94176 85.977C-2.76325 86.6112 -3.74719 86.9464 -4.78777 86.9464C-6.09244 86.9464 -7.34641 86.3941 -8.22804 85.4312C-9.12175 84.4552 -9.5494 83.1865 -9.43239 81.8588C-9.22252 79.4817 -7.13412 77.6196 -4.67756 77.6196H-1.08142H1.21817H4.76491C6.05817 77.6196 7.26055 78.1368 8.15053 79.0758C9.03985 80.0138 9.49098 81.2445 9.42139 82.5404Z" fill="#4E4E4E"/>
<path d="M4.24024 83.0218C3.65716 83.0218 3.18275 83.496 3.18275 84.0791C3.18275 84.6622 3.65716 85.1364 4.24024 85.1364C4.82331 85.1364 5.2975 84.6622 5.2975 84.0791C5.2975 83.496 4.82331 83.0218 4.24024 83.0218ZM4.24024 84.6975C3.89908 84.6975 3.62182 84.42 3.62182 84.0793C3.62182 83.7384 3.8993 83.4611 4.24024 83.4611C4.58117 83.4611 4.85844 83.7386 4.85844 84.0793C4.85844 84.42 4.58095 84.6975 4.24024 84.6975Z" fill="#4E4E4E"/>
<path d="M4.24024 81.5481C4.82331 81.5481 5.2975 81.0739 5.2975 80.4909C5.2975 79.9078 4.82331 79.4336 4.24024 79.4336C3.65716 79.4336 3.18275 79.908 3.18275 80.4909C3.18275 81.0739 3.65716 81.5481 4.24024 81.5481ZM4.24024 79.8727C4.58117 79.8727 4.85844 80.1502 4.85844 80.4909C4.85844 80.8318 4.58095 81.1091 4.24024 81.1091C3.89908 81.1091 3.62182 80.8316 3.62182 80.4909C3.6216 80.1499 3.89908 79.8727 4.24024 79.8727Z" fill="#4E4E4E"/>
<path d="M2.22647 81.2276C1.6434 81.2276 1.16899 81.7018 1.16899 82.2849C1.16899 82.868 1.6434 83.3421 2.22647 83.3421C2.80955 83.3421 3.28374 82.868 3.28374 82.2849C3.28374 81.7018 2.80955 81.2276 2.22647 81.2276ZM2.22647 82.9033C1.88532 82.9033 1.60805 82.6258 1.60805 82.2851C1.60805 81.9442 1.88554 81.6669 2.22647 81.6669C2.56741 81.6669 2.84467 81.9444 2.84467 82.2851C2.84467 82.6258 2.56741 82.9033 2.22647 82.9033Z" fill="#4E4E4E"/>
<path d="M6.25378 81.2276C5.6707 81.2276 5.1963 81.7018 5.1963 82.2849C5.1963 82.868 5.6707 83.3421 6.25378 83.3421C6.83685 83.3421 7.31104 82.868 7.31104 82.2849C7.31104 81.7018 6.83707 81.2276 6.25378 81.2276ZM6.25378 82.9033C5.91263 82.9033 5.63536 82.6258 5.63536 82.2851C5.63536 81.9442 5.91285 81.6669 6.25378 81.6669C6.59471 81.6669 6.87198 81.9444 6.87198 82.2851C6.8722 82.6258 6.59471 82.9033 6.25378 82.9033Z" fill="#4E4E4E"/>
<path d="M80.0112 -9.89011C85.4584 -9.89011 89.8901 -5.45843 89.8901 -0.0111998C89.8901 5.43603 85.4584 9.86771 80.0112 9.86771C74.564 9.86771 70.1323 5.43603 70.1323 -0.0111998C70.1323 -5.45843 74.564 -9.89011 80.0112 -9.89011ZM79.5721 -3.25763C78.3272 -3.2978 77.1189 -3.50877 76.0028 -3.87078C75.7481 -2.8201 75.5925 -1.66229 75.562 -0.450262H79.5721V-3.25763ZM79.5721 -4.13575V-8.96588C78.1821 -8.67632 76.9577 -7.03071 76.2368 -4.71575C77.2756 -4.37504 78.4053 -4.17593 79.5721 -4.13575ZM80.4503 -8.96588V-4.13575C81.6171 -4.17593 82.7468 -4.37504 83.7854 -4.71575C83.0647 -7.03071 81.8403 -8.67632 80.4503 -8.96588ZM80.4503 -3.25763V-0.450262H84.4602C84.4297 -1.66207 84.2741 -2.8201 84.0194 -3.87078C82.9035 -3.50877 81.6952 -3.29802 80.4503 -3.25763ZM85.3383 -0.450262H89.0008C88.9097 -2.33669 88.2342 -4.07165 87.153 -5.48016C86.4755 -4.96163 85.7015 -4.52674 84.862 -4.18076C85.141 -3.0438 85.3083 -1.78567 85.3383 -0.450262ZM85.3383 0.427863C85.3083 1.76327 85.141 3.0214 84.862 4.15836C85.7017 4.50434 86.4757 4.93923 87.1532 5.45776C88.2342 4.04925 88.9097 2.31429 89.0008 0.427863H85.3383ZM84.4602 0.427863H80.4503V3.23545C81.6952 3.27562 82.9035 3.48659 84.0196 3.84838C84.2743 2.7977 84.4299 1.63968 84.4602 0.427863ZM80.4503 4.11335V8.94348C81.8403 8.65392 83.0647 7.00831 83.7854 4.69314C82.7468 4.35264 81.6171 4.15353 80.4503 4.11335ZM79.5721 8.94348V4.11335C78.4053 4.15353 77.2756 4.35264 76.2368 4.69336C76.9577 7.00853 78.1821 8.65392 79.5721 8.94348ZM79.5721 3.23545V0.427863H75.562C75.5925 1.63989 75.7481 2.7977 76.0028 3.84838C77.1189 3.48637 78.3272 3.27562 79.5721 3.23545ZM74.6838 0.427863H71.0214C71.1125 2.31429 71.788 4.04925 72.8692 5.45776C73.5467 4.93923 74.3205 4.50434 75.1602 4.15836C74.8814 3.0214 74.7141 1.76327 74.6838 0.427863ZM74.6838 -0.450262C74.7139 -1.78567 74.8812 -3.0438 75.1602 -4.18076C74.3207 -4.52674 73.5467 -4.96163 72.8692 -5.48016C71.788 -4.07165 71.1125 -2.33669 71.0214 -0.450262H74.6838ZM73.4382 -6.15105C74.0204 -5.71001 74.6805 -5.33483 75.3967 -5.031C75.864 -6.52601 76.5371 -7.75977 77.3498 -8.61024C75.8368 -8.14088 74.4946 -7.2812 73.4382 -6.15105ZM82.6724 -8.61024C83.4851 -7.75977 84.1581 -6.52601 84.6255 -5.031C85.3416 -5.33483 86.0018 -5.71001 86.5842 -6.15105C85.5278 -7.2812 84.1856 -8.14088 82.6724 -8.61024ZM86.5842 6.12865C86.002 5.68761 85.3419 5.31243 84.6255 5.0086C84.1581 6.50361 83.4851 7.73737 82.6724 8.58784C84.1856 8.11848 85.5278 7.2588 86.5842 6.12865ZM77.35 8.58784C76.5373 7.73737 75.8643 6.50361 75.3969 5.0086C74.6808 5.31243 74.0206 5.68761 73.4384 6.12865C74.4946 7.2588 75.8368 8.11848 77.35 8.58784Z" fill="#4E4E4E"/>
<g clip-path="url(#clip2_6_2)">
<path d="M80.0112 150.11C85.4584 150.11 89.8901 154.542 89.8901 159.989C89.8901 165.436 85.4584 169.868 80.0112 169.868C74.564 169.868 70.1323 165.436 70.1323 159.989C70.1323 154.542 74.564 150.11 80.0112 150.11ZM79.5721 156.742C78.3272 156.702 77.1189 156.491 76.0028 156.129C75.7481 157.18 75.5925 158.338 75.562 159.55H79.5721V156.742ZM79.5721 155.864V151.034C78.1821 151.324 76.9577 152.969 76.2368 155.284C77.2756 155.625 78.4053 155.824 79.5721 155.864ZM80.4503 151.034V155.864C81.6171 155.824 82.7468 155.625 83.7854 155.284C83.0647 152.969 81.8403 151.324 80.4503 151.034ZM80.4503 156.742V159.55H84.4602C84.4297 158.338 84.2741 157.18 84.0194 156.129C82.9035 156.491 81.6952 156.702 80.4503 156.742ZM85.3383 159.55H89.0008C88.9097 157.663 88.2342 155.928 87.153 154.52C86.4755 155.038 85.7015 155.473 84.862 155.819C85.141 156.956 85.3083 158.214 85.3383 159.55ZM85.3383 160.428C85.3083 161.763 85.141 163.021 84.862 164.158C85.7017 164.504 86.4757 164.939 87.1532 165.458C88.2342 164.049 88.9097 162.314 89.0008 160.428H85.3383ZM84.4602 160.428H80.4503V163.235C81.6952 163.276 82.9035 163.487 84.0196 163.848C84.2743 162.798 84.4299 161.64 84.4602 160.428ZM80.4503 164.113V168.943C81.8403 168.654 83.0647 167.008 83.7854 164.693C82.7468 164.353 81.6171 164.154 80.4503 164.113ZM79.5721 168.943V164.113C78.4053 164.154 77.2756 164.353 76.2368 164.693C76.9577 167.009 78.1821 168.654 79.5721 168.943ZM79.5721 163.235V160.428H75.562C75.5925 161.64 75.7481 162.798 76.0028 163.848C77.1189 163.486 78.3272 163.276 79.5721 163.235ZM74.6838 160.428H71.0214C71.1125 162.314 71.788 164.049 72.8692 165.458C73.5467 164.939 74.3205 164.504 75.1602 164.158C74.8814 163.021 74.7141 161.763 74.6838 160.428ZM74.6838 159.55C74.7139 158.214 74.8812 156.956 75.1602 155.819C74.3207 155.473 73.5467 155.038 72.8692 154.52C71.788 155.928 71.1125 157.663 71.0214 159.55H74.6838ZM73.4382 153.849C74.0204 154.29 74.6805 154.665 75.3967 154.969C75.864 153.474 76.5371 152.24 77.3498 151.39C75.8368 151.859 74.4946 152.719 73.4382 153.849ZM82.6724 151.39C83.4851 152.24 84.1581 153.474 84.6255 154.969C85.3416 154.665 86.0018 154.29 86.5842 153.849C85.5278 152.719 84.1856 151.859 82.6724 151.39ZM86.5842 166.129C86.002 165.688 85.3419 165.312 84.6255 165.009C84.1581 166.504 83.4851 167.737 82.6724 168.588C84.1856 168.118 85.5278 167.259 86.5842 166.129ZM77.35 168.588C76.5373 167.737 75.8643 166.504 75.3969 165.009C74.6808 165.312 74.0206 165.688 73.4384 166.129C74.4946 167.259 75.8368 168.118 77.35 168.588Z" fill="#4E4E4E"/>
</g>
<g clip-path="url(#clip3_6_2)">
<path d="M161.798 161.359V150.549C161.798 150.307 161.601 150.11 161.359 150.11H150.549C150.307 150.11 150.11 150.307 150.11 150.549V161.359C150.11 161.601 150.307 161.798 150.549 161.798H161.359C161.602 161.798 161.798 161.602 161.798 161.359ZM160.92 160.92H150.988V150.988H160.92V160.92Z" fill="#4E4E4E"/>
<path d="M169.429 158.179H163.993C163.75 158.179 163.554 158.376 163.554 158.618C163.554 158.861 163.75 159.058 163.993 159.058H168.99V168.99H159.058V163.993C159.058 163.75 158.861 163.554 158.618 163.554C158.376 163.554 158.179 163.75 158.179 163.993V169.429C158.179 169.671 158.376 169.868 158.618 169.868H169.429C169.671 169.868 169.868 169.671 169.868 169.429V158.618C169.868 158.376 169.671 158.179 169.429 158.179Z" fill="#4E4E4E"/>
<path d="M152.676 153.993H156.998C156.65 154.737 156.153 155.477 155.591 156.166C155.206 155.653 154.875 155.13 154.662 154.65C154.563 154.428 154.303 154.328 154.082 154.427C153.861 154.526 153.761 154.785 153.86 155.007C154.125 155.603 154.535 156.238 155.004 156.845C154.411 157.493 153.782 158.074 153.205 158.542C153.017 158.694 152.988 158.971 153.141 159.159C153.227 159.266 153.354 159.322 153.482 159.322C153.579 159.322 153.677 159.29 153.758 159.224C154.337 158.755 154.965 158.175 155.567 157.527C156.156 158.199 156.785 158.796 157.321 159.208C157.401 159.27 157.495 159.299 157.588 159.299C157.72 159.299 157.851 159.24 157.937 159.128C158.085 158.935 158.048 158.66 157.856 158.512C157.331 158.109 156.716 157.516 156.152 156.861C156.898 155.967 157.554 154.982 157.956 153.993H159.501C159.744 153.993 159.94 153.796 159.94 153.553C159.94 153.311 159.744 153.114 159.501 153.114H156.186V152.5C156.186 152.258 155.99 152.061 155.747 152.061C155.505 152.061 155.308 152.258 155.308 152.5V153.114H152.676C152.433 153.114 152.237 153.311 152.237 153.553C152.237 153.796 152.433 153.993 152.676 153.993Z" fill="#4E4E4E"/>
</g>
<g clip-path="url(#clip4_6_2)">
<path d="M1.79818 161.359V150.549C1.79818 150.307 1.60148 150.11 1.35911 150.11H-9.45104C-9.69341 150.11 -9.89011 150.307 -9.89011 150.549V161.359C-9.89011 161.601 -9.69341 161.798 -9.45104 161.798H1.35911C1.6017 161.798 1.79818 161.602 1.79818 161.359ZM0.920052 160.92H-9.01198V150.988H0.920052V160.92Z" fill="#4E4E4E"/>
<path d="M9.42864 158.179H3.99283C3.75046 158.179 3.55376 158.376 3.55376 158.618C3.55376 158.861 3.75046 159.058 3.99283 159.058H8.98958V168.99H-0.942455V163.993C-0.942455 163.75 -1.13915 163.554 -1.38152 163.554C-1.62388 163.554 -1.82058 163.75 -1.82058 163.993V169.429C-1.82058 169.671 -1.62388 169.868 -1.38152 169.868H9.42864C9.671 169.868 9.8677 169.671 9.8677 169.429V158.618C9.8677 158.376 9.671 158.179 9.42864 158.179Z" fill="#4E4E4E"/>
<path d="M3.13161 152.423C3.1281 152.431 3.12656 152.44 3.12349 152.449C3.11712 152.467 3.11031 152.485 3.10658 152.505C3.10087 152.533 3.0978 152.562 3.0978 152.592C3.0978 152.621 3.10087 152.65 3.10658 152.678C3.11053 152.698 3.11734 152.716 3.12349 152.734C3.12656 152.743 3.1281 152.752 3.13161 152.76C3.13995 152.78 3.15093 152.799 3.1619 152.817C3.16542 152.823 3.16805 152.83 3.172 152.836C3.18803 152.86 3.20625 152.882 3.22667 152.902L4.37569 154.051C4.46153 154.137 4.57371 154.18 4.68611 154.18C4.79851 154.18 4.91069 154.137 4.99653 154.051C5.16798 153.88 5.16798 153.602 4.99653 153.43L4.59676 153.031H6.94662V156.468C6.94662 156.71 7.14332 156.907 7.38569 156.907C7.62805 156.907 7.82475 156.71 7.82475 156.468V152.592C7.82475 152.35 7.62805 152.153 7.38569 152.153H4.59676L4.99653 151.753C5.16798 151.582 5.16798 151.304 4.99653 151.132C4.82507 150.961 4.54715 150.961 4.37569 151.132L3.22667 152.281C3.20625 152.301 3.18803 152.324 3.172 152.348C3.16805 152.353 3.16564 152.36 3.1619 152.366C3.15093 152.385 3.13995 152.403 3.13161 152.423Z" fill="#4E4E4E"/>
</g>
<g clip-path="url(#clip5_6_2)">
<path d="M161.798 1.35911V-9.45104C161.798 -9.69341 161.601 -9.89011 161.359 -9.89011H150.549C150.307 -9.89011 150.11 -9.69341 150.11 -9.45104V1.35911C150.11 1.60148 150.307 1.79818 150.549 1.79818H161.359C161.602 1.79818 161.798 1.6017 161.798 1.35911ZM160.92 0.920052H150.988V-9.01198H160.92V0.920052Z" fill="#4E4E4E"/>
<path d="M169.429 -1.82057H163.993C163.75 -1.82057 163.554 -1.62387 163.554 -1.38151C163.554 -1.13915 163.75 -0.942447 163.993 -0.942447H168.99V8.98959H159.058V3.99283C159.058 3.75047 158.861 3.55377 158.618 3.55377C158.376 3.55377 158.179 3.75047 158.179 3.99283V9.42865C158.179 9.67101 158.376 9.86771 158.618 9.86771H169.429C169.671 9.86771 169.868 9.67101 169.868 9.42865V-1.38151C169.868 -1.62409 169.671 -1.82057 169.429 -1.82057Z" fill="#4E4E4E"/>
<path d="M156.846 7.55364C156.852 7.53937 156.855 7.52444 156.86 7.50973C156.864 7.497 156.868 7.48492 156.871 7.47175C156.882 7.41511 156.882 7.3565 156.871 7.29986C156.868 7.28669 156.864 7.27461 156.86 7.26188C156.855 7.24717 156.852 7.23224 156.846 7.21797C156.84 7.20282 156.831 7.18921 156.824 7.17494C156.818 7.16419 156.813 7.15277 156.806 7.14245C156.79 7.1183 156.771 7.09569 156.751 7.07506L155.602 5.92603C155.43 5.75458 155.152 5.75458 154.981 5.92603C154.809 6.09748 154.809 6.37541 154.981 6.54687L155.381 6.94663H153.031V3.50965C153.031 3.26729 152.834 3.07059 152.592 3.07059C152.35 3.07059 152.153 3.26729 152.153 3.50965V7.38569C152.153 7.62806 152.35 7.82476 152.592 7.82476H155.381L154.981 8.22452C154.81 8.39598 154.81 8.6739 154.981 8.84536C155.067 8.93119 155.179 8.974 155.291 8.974C155.404 8.974 155.516 8.93119 155.602 8.84536L156.751 7.69633C156.772 7.67591 156.79 7.6533 156.806 7.62893C156.813 7.61862 156.818 7.6072 156.824 7.59644C156.831 7.58239 156.84 7.56878 156.846 7.55364Z" fill="#4E4E4E"/>
</g>
<g clip-path="url(#clip6_6_2)">
<path d="M1.68828 1.24922V-9.56094C1.68828 -9.8033 1.49158 -10 1.24922 -10H-9.56094C-9.8033 -10 -10 -9.8033 -10 -9.56094V1.24922C-10 1.49158 -9.8033 1.68828 -9.56094 1.68828H1.24922C1.4918 1.68828 1.68828 1.4918 1.68828 1.24922ZM0.810158 0.810158H-9.12187V-9.12187H0.810158V0.810158Z" fill="#4E4E4E"/>
<path d="M9.31875 -1.93047H3.88293C3.64057 -1.93047 3.44387 -1.73377 3.44387 -1.4914C3.44387 -1.24904 3.64057 -1.05234 3.88293 -1.05234H8.87968V8.87969H-1.05235V3.88294C-1.05235 3.64058 -1.24905 3.44388 -1.49141 3.44388C-1.73377 3.44388 -1.93047 3.64058 -1.93047 3.88294V9.31875C-1.93047 9.56112 -1.73377 9.75782 -1.49141 9.75782H9.31875C9.56111 9.75782 9.75781 9.56112 9.75781 9.31875V-1.4914C9.75781 -1.73399 9.56111 -1.93047 9.31875 -1.93047Z" fill="#4E4E4E"/>
<path d="M1.61869 7.62661C1.84745 7.70498 2.09793 7.58424 2.17696 7.35483L2.89834 5.26533H4.92879L5.65017 7.35483C5.71295 7.5366 5.88331 7.65097 6.0653 7.65097C6.11294 7.65097 6.16123 7.64307 6.20843 7.62683C6.43784 7.54779 6.55946 7.29775 6.48021 7.06856L4.32881 0.836944C4.26778 0.659782 4.10093 0.541016 3.91367 0.541016C3.72641 0.541016 3.55979 0.659782 3.49854 0.836944L1.3467 7.06834C1.26766 7.29753 1.38928 7.54757 1.61869 7.62661ZM3.91367 2.32537L4.62561 4.38742H3.20151L3.91367 2.32537Z" fill="#4E4E4E"/>
</g>
</g>
<defs>
<clipPath id="clip0_6_2">
<rect width="160" height="160" fill="white"/>
</clipPath>
<clipPath id="clip1_6_2">
<rect width="20" height="20" fill="white" transform="translate(150 70)"/>
</clipPath>
<clipPath id="clip2_6_2">
<rect width="20" height="20" fill="white" transform="matrix(-1 0 0 1 90 150)"/>
</clipPath>
<clipPath id="clip3_6_2">
<rect width="20" height="20" fill="white" transform="translate(150 150)"/>
</clipPath>
<clipPath id="clip4_6_2">
<rect width="20" height="20" fill="white" transform="translate(-10 150)"/>
</clipPath>
<clipPath id="clip5_6_2">
<rect width="20" height="20" fill="white" transform="translate(150 -10)"/>
</clipPath>
<clipPath id="clip6_6_2">
<rect width="20" height="20" fill="white" transform="translate(-10 -10)"/>
</clipPath>
</defs>
</svg>
