<svg width="49" height="49" viewBox="0 0 49 49" fill="none" xmlns="http://www.w3.org/2000/svg">
<g filter="url(#filter0_d_37_38)">
<circle cx="22.5" cy="22.5" r="22.5" fill="#FFDC35"/>
<circle cx="22.5" cy="22.5" r="20.1804" fill="black"/>
</g>
<path d="M33.3769 30.5475C32.3116 28.6538 30.5668 26.5089 27.7263 25.2896C26.1017 26.4262 24.1282 27.0953 22.0005 27.0953C19.8718 27.0953 17.8982 26.4262 16.2736 25.2896C13.4331 26.5089 11.6883 28.6539 10.6236 30.5475C9.2106 33.0592 10.3184 36.6131 12.7622 36.6131C15.206 36.6131 22.0006 36.6131 22.0006 36.6131C22.0006 36.6131 28.7945 36.6131 31.2384 36.6131C33.6821 36.6131 34.7899 33.0592 33.3769 30.5475Z" fill="#FFDC35"/>
<path d="M22.0005 24.7188C26.173 24.7188 29.5545 21.3362 29.5545 17.1642V15.3545C29.5545 11.1827 26.173 7.80005 22.0005 7.80005C17.8274 7.80005 14.4454 11.1827 14.4454 15.3546V17.1643C14.4454 21.3362 17.8275 24.7188 22.0005 24.7188Z" fill="#FFDC35"/>
<defs>
<filter id="filter0_d_37_38" x="0" y="0" width="49" height="49" filterUnits="userSpaceOnUse" color-interpolation-filters="sRGB">
<feFlood flood-opacity="0" result="BackgroundImageFix"/>
<feColorMatrix in="SourceAlpha" type="matrix" values="0 0 0 0 0 0 0 0 0 0 0 0 0 0 0 0 0 0 127 0" result="hardAlpha"/>
<feOffset dx="2" dy="2"/>
<feGaussianBlur stdDeviation="1"/>
<feComposite in2="hardAlpha" operator="out"/>
<feColorMatrix type="matrix" values="0 0 0 0 0 0 0 0 0 0 0 0 0 0 0 0 0 0 0.25 0"/>
<feBlend mode="normal" in2="BackgroundImageFix" result="effect1_dropShadow_37_38"/>
<feBlend mode="normal" in="SourceGraphic" in2="effect1_dropShadow_37_38" result="shape"/>
</filter>
</defs>
</svg>
