<svg width="45" height="45" viewBox="0 0 45 45" fill="none" xmlns="http://www.w3.org/2000/svg">
<circle cx="22.5" cy="22.5" r="22.5" fill="#FFDC35"/>
<circle cx="22.5" cy="22.5" r="20.1804" fill="black"/>
<g clip-path="url(#clip0_9_8)">
<path d="M13.8847 12.5137C17.278 15.0481 20.928 20.1868 22.268 22.9445C23.6082 20.187 27.258 15.048 30.6514 12.5137C33.0999 10.685 37.067 9.26999 37.067 13.7725C37.067 14.6717 36.5488 21.3263 36.2449 22.4067C35.1884 26.1627 31.3385 27.1207 27.9141 26.5409C33.9 27.5544 35.4227 30.9116 32.1342 34.2688C25.8885 40.6448 23.1573 32.6691 22.4572 30.6254C22.3289 30.2507 22.2688 30.0755 22.268 30.2245C22.2671 30.0755 22.207 30.2507 22.0788 30.6254C21.3789 32.6691 18.6478 40.645 12.4018 34.2688C9.11312 30.9116 10.6358 27.5542 16.6219 26.5409C13.1973 27.1207 9.3474 26.1627 8.29106 22.4067C7.98711 21.3262 7.4689 14.6716 7.4689 13.7725C7.4689 9.26999 11.4361 10.685 13.8845 12.5137H13.8847Z" fill="#FFDC35"/>
</g>
<defs>
<clipPath id="clip0_9_8">
<rect width="30.6186" height="26.9072" fill="white" transform="translate(6.95877 10.2784)"/>
</clipPath>
</defs>
</svg>
