<svg width="45" height="45" viewBox="0 0 45 45" fill="none" xmlns="http://www.w3.org/2000/svg">
<circle cx="22.5" cy="22.5" r="22.5" fill="#FFDC35"/>
<circle cx="22.5" cy="22.5" r="20.1804" fill="black"/>
<path d="M12.4811 33.3964C11.9612 33.2702 11.2036 32.6166 10.357 31.5546C8.64877 29.4082 7.72783 27.0019 7.45304 24.0014C7.40105 23.4221 7.40105 21.9664 7.45304 21.4317C7.70555 18.9139 8.58193 16.7453 10.201 14.6657C10.6986 14.027 11.5156 13.1952 11.9092 12.9352C12.4662 12.5565 12.8153 12.5268 13.1495 12.8238C13.2832 12.9427 13.3203 13.0021 13.3352 13.1581C13.3649 13.4551 13.2163 13.6779 12.5182 14.4058C11.5378 15.4158 11.0922 15.9803 10.5872 16.8121C9.45088 18.6985 8.96813 20.689 9.03497 23.1547C9.07211 24.4693 9.21322 25.4422 9.52515 26.5191C9.80737 27.492 10.1416 28.2719 10.6392 29.126C11.1442 29.98 11.5676 30.5222 12.4142 31.3986C13.1569 32.1636 13.3426 32.4309 13.3426 32.7354C13.3426 33.0399 13.1272 33.3147 12.8227 33.3964C12.6667 33.441 12.6593 33.441 12.4811 33.3964ZM32.103 33.4113C31.947 33.3742 31.6648 33.0771 31.6277 32.8988C31.5757 32.624 31.7391 32.3789 32.5041 31.5843C32.8828 31.1981 33.3433 30.6856 33.529 30.4479C34.9178 28.7175 35.6828 26.8013 35.8907 24.551C35.9576 23.8603 35.9205 22.0778 35.8313 21.4094C35.6457 20.0057 35.304 18.8619 34.7173 17.6588C34.1528 16.5076 33.5661 15.6906 32.5783 14.6731C31.9173 13.9899 31.7168 13.7374 31.65 13.4923C31.5831 13.2472 31.6351 13.0689 31.8134 12.861C32.0659 12.5788 32.3481 12.549 32.8011 12.7719C33.3433 13.0392 34.0489 13.7448 34.8584 14.8365C36.4998 17.0275 37.3464 19.4412 37.547 22.5086C37.7178 25.1154 37.0865 27.752 35.7645 29.9355C34.851 31.4432 33.4621 32.988 32.7194 33.3147C32.5412 33.4039 32.259 33.441 32.103 33.4113ZM15.7266 31.8219C15.281 31.6882 15.0285 31.2426 15.1325 30.797C15.1993 30.5222 15.4741 30.24 15.7415 30.1731C16.0089 30.1063 30.0383 30.1063 30.3057 30.1731C30.5805 30.24 30.8553 30.5296 30.9147 30.8119C30.9964 31.1832 30.8256 31.562 30.5062 31.7477L30.3354 31.8442L23.0867 31.8516C19.0985 31.8516 15.7861 31.8368 15.7266 31.8219ZM21.2523 28.413C19.908 27.9228 18.7865 26.9721 18.2147 25.821C17.8953 25.1823 17.7096 24.4099 17.7096 23.7191C17.7096 22.7834 18.0735 21.8921 19.1876 20.1097C20.0194 18.7802 20.1605 18.5426 20.4056 18.0301C20.7324 17.3543 20.8364 16.9532 20.8438 16.3813C20.8512 15.8392 20.7695 15.5124 20.517 15.0965C20.3388 14.7994 19.9377 14.3464 19.7743 14.2647C19.5069 14.131 19.455 13.9453 19.6406 13.8191C19.9377 13.626 20.7472 13.7448 21.4974 14.1013C22.344 14.5023 22.9605 15.0742 23.3689 15.8243C23.6809 16.4036 23.8071 16.8492 24.0151 18.1192C24.2528 19.5304 24.483 19.976 24.9509 19.924C25.2034 19.8943 25.3594 19.7977 25.4633 19.6121C25.6342 19.315 25.5599 18.9065 25.2183 18.2306C24.9435 17.6811 24.9583 17.5102 25.2851 17.5994C25.4559 17.6439 25.9981 18.0895 26.3769 18.4906C27.3201 19.4932 27.788 20.4067 28.0182 21.6767C28.137 22.3377 28.1445 23.4444 28.0405 24.0162C27.9068 24.7441 27.632 25.4273 27.2384 26.0141C26.8002 26.6676 25.8941 27.492 25.2331 27.8411C24.936 27.9971 24.8321 28.0045 24.6835 27.8931C24.5053 27.752 24.5424 27.648 24.9435 27.2247C25.545 26.5859 25.857 26.1255 26.0352 25.613C26.31 24.8183 26.1763 23.7043 25.7084 22.9987C25.5153 22.7091 25.2331 22.4491 25.1068 22.4491C25.04 22.4491 25.0474 22.5383 25.1811 23.0136C25.2257 23.177 25.2628 23.3775 25.2628 23.4592C25.2628 23.89 24.6538 24.2019 24.1191 24.0459C23.6809 23.9197 23.4878 23.526 23.5472 22.8725C23.562 22.672 23.5843 22.308 23.5843 22.0629C23.5843 21.6322 23.5843 21.6099 23.4432 21.3351C23.1758 20.8078 22.5594 20.2656 22.2252 20.2656C22.0841 20.2656 22.0692 20.2731 22.0692 20.377C22.0692 20.4513 22.1064 20.5256 22.1732 20.5924C22.5149 20.9118 22.5817 21.5728 22.3292 22.1521C22.1732 22.5086 21.995 22.7165 21.386 23.229C20.5838 23.9122 20.3239 24.2316 20.1679 24.7589C20.0937 25.004 20.0862 25.1006 20.1085 25.5462C20.1457 26.2963 20.2942 26.7865 20.6507 27.3138C20.9255 27.7148 21.2448 27.9748 21.683 28.1382C21.891 28.2199 21.9133 28.2347 21.9133 28.3387C21.9133 28.4575 21.8241 28.5392 21.683 28.5392C21.6459 28.5467 21.4528 28.4872 21.2523 28.413Z" fill="#FFDC35"/>
</svg>
