<svg width="45" height="45" viewBox="0 0 45 45" fill="none" xmlns="http://www.w3.org/2000/svg">
<circle cx="22.5" cy="22.5" r="22.5" fill="#FFDC35"/>
<circle cx="22.5" cy="22.5" r="20.1804" fill="black"/>
<g clip-path="url(#clip0_9_20)">
<path d="M6 22C6 17.5833 7.5625 13.8125 10.6875 10.6875C13.8125 7.5625 17.5833 6 22 6C26.4166 6 30.1875 7.5625 33.3125 10.6875C36.4375 13.8125 38 17.5833 38 22C38 26.4166 36.4375 30.1875 33.3125 33.3125C30.1875 36.4375 26.4167 38 22 38C17.5833 38 13.8125 36.4375 10.6875 33.3125C7.5625 30.1875 6 26.4166 6 22ZM7.75 22C7.75 25.9167 9.14583 29.2708 11.9375 32.0625C14.7292 34.8541 18.0833 36.25 22 36.25C25.9167 36.25 29.2708 34.8542 32.0625 32.0625C34.8542 29.2708 36.25 25.9167 36.25 22C36.25 18.0833 34.8542 14.7292 32.0625 11.9375C29.2708 9.14583 25.9166 7.75 22 7.75C18.0833 7.75 14.7292 9.14583 11.9375 11.9375C9.14583 14.7292 7.75 18.0833 7.75 22ZM12.25 25.4375C12.1667 25.3541 12.1667 25.2708 12.25 25.1875C12.4167 25.0208 12.625 24.9583 12.875 25C13.125 25.0416 13.2708 25.0833 13.3125 25.125C13.6042 25.25 13.9271 25.5312 14.2812 25.9687C14.6354 26.4062 14.9166 26.7083 15.125 26.875C16.125 27.7083 17.1458 27.7708 18.1875 27.0625C18.2708 26.7708 18.4062 26.5208 18.5937 26.3124C18.7812 26.1041 18.9583 25.9583 19.125 25.8749C19.2917 25.7916 19.5833 25.6666 20 25.4999C18.625 25.3749 17.5104 25.1354 16.6562 24.7812C15.8021 24.427 15.125 23.9791 14.625 23.4375C13.9583 22.6875 13.552 21.7083 13.4062 20.5C13.2603 19.2916 13.3541 18.1875 13.6875 17.1875C13.9375 16.5625 14.2916 16 14.7499 15.5C14.4166 14.4583 14.4791 13.2708 14.9374 11.9375C16.2708 12.0208 17.4791 12.4791 18.5624 13.3125C20.6458 12.7708 22.8124 12.75 25.0624 13.25C25.3541 13.0416 25.802 12.7812 26.4061 12.4687C27.0103 12.1562 27.7707 11.9791 28.6874 11.9374C28.854 12.3958 28.9686 12.9374 29.0311 13.5624C29.0936 14.1874 29.0624 14.7708 28.9374 15.3124C29.8957 16.3124 30.3957 17.6458 30.4374 19.3124C30.4374 20.6458 30.2082 21.7499 29.7499 22.6249C29.2916 23.4999 28.4791 24.2291 27.3124 24.8124C26.5207 25.1874 25.4791 25.4166 24.1874 25.4999C24.7708 25.7916 25.1978 26.0936 25.4687 26.4061C25.7395 26.7186 25.9166 27.2082 26 27.8749V29.8437L26.0624 31.7499C26.1874 31.9583 26.3333 32.1353 26.5 32.2812C26.6666 32.427 26.8125 32.5312 26.9375 32.5937C27.0624 32.6562 27.1041 32.75 27.0624 32.875C27.0208 33 26.8541 33.0625 26.5625 33.0625C25.8541 33.0625 25.2916 32.8125 24.875 32.3124C24.75 32.1041 24.6875 31.8541 24.6875 31.5624V28.5624C24.6875 28.2291 24.6041 27.9895 24.4375 27.8437C24.2708 27.6978 24.1041 27.6041 23.9375 27.5624V31.4999C23.9375 32.2082 24.0208 32.6666 24.1875 32.8749C24.3541 33.0832 24.4583 33.2916 24.5 33.4999C24.5417 33.5416 24.5104 33.5728 24.4062 33.5936C24.3021 33.6144 24.125 33.5832 23.875 33.4999C23.3333 33.3749 22.9583 33.0936 22.75 32.6561C22.5417 32.2186 22.4375 31.7499 22.4375 31.2499V27.375H21.625V31.25C21.625 31.75 21.5208 32.2292 21.3125 32.6875C21.0208 33.2708 20.4791 33.5833 19.6875 33.625C19.5625 33.5833 19.5 33.5416 19.5 33.5C19.5417 33.4583 19.6667 33.25 19.875 32.875C19.9167 32.7917 19.9688 32.625 20.0313 32.375C20.0938 32.125 20.125 31.8333 20.125 31.5V27.5625C19.9584 27.6041 19.8021 27.6979 19.6563 27.8437C19.5104 27.9896 19.4375 28.2292 19.4375 28.5625V31.5625C19.4375 31.8541 19.375 32.1042 19.25 32.3125C18.875 32.8125 18.3125 33.0625 17.5625 33.0625C17.2709 33.0625 17.1042 33 17.0625 32.875C17.0208 32.7917 17.0313 32.7188 17.0938 32.6563C17.1563 32.5938 17.2501 32.5208 17.3751 32.4375C17.5001 32.3542 17.5834 32.2916 17.6251 32.25C17.7917 32.125 17.9167 31.9583 18.0001 31.75C18.1251 31.5833 18.1563 31.1458 18.0938 30.4375C18.0313 29.7292 18.0209 29.2708 18.0625 29.0625C16.9792 29.4375 15.875 29.25 14.75 28.5C14.4167 28.1667 14.0833 27.6875 13.75 27.0625C13.5 26.6041 13 26.0625 12.25 25.4375Z" fill="#FFDC35"/>
</g>
<defs>
<clipPath id="clip0_9_20">
<rect width="32" height="32" fill="white" transform="translate(6 6)"/>
</clipPath>
</defs>
</svg>
