<svg width="45" height="45" viewBox="0 0 45 45" fill="none" xmlns="http://www.w3.org/2000/svg">
<circle cx="22.5" cy="22.5" r="22.5" fill="#FFDC35"/>
<circle cx="22.1804" cy="22.1804" r="20.1804" fill="black"/>
<path d="M10.9406 18.1844H15.662V33.3518H10.9406L10.9406 18.1844ZM13.3027 10.6443C14.8122 10.6443 16.036 11.8699 16.036 13.3769C16.036 14.8855 14.8122 16.111 13.3027 16.111C11.7879 16.111 10.5663 14.8855 10.5663 13.3769C10.5663 11.8699 11.7878 10.6443 13.3027 10.6443ZM18.6216 18.1844H23.143V20.2574H23.2071C23.8358 19.064 25.3756 17.8073 27.6705 17.8073C32.443 17.8073 33.3257 20.9473 33.3257 25.0323V33.3518H28.6132V25.9775C28.6132 24.217 28.5783 21.9541 26.1615 21.9541C23.7066 21.9541 23.3324 23.87 23.3324 25.8473V33.3518H18.6216V18.1844Z" fill="#FFDC35"/>
</svg>
