<svg width="45" height="45" viewBox="0 0 45 45" fill="none" xmlns="http://www.w3.org/2000/svg">
<circle cx="22.5" cy="22.5" r="22.5" fill="#FFDC35"/>
<circle cx="22.1804" cy="22.1804" r="20.1804" fill="black"/>
<g clip-path="url(#clip0_9_14)">
<path d="M22 5.68C12.9866 5.68 5.67999 12.9866 5.67999 22C5.67999 31.0134 12.9866 38.32 22 38.32C31.0134 38.32 38.32 31.0134 38.32 22C38.32 12.9866 31.0134 5.68 22 5.68ZM18.005 28.7643H14.7002V18.1291H18.005V28.7643ZM16.3322 16.8235C15.2884 16.8235 14.6135 16.084 14.6135 15.1694C14.6135 14.2361 15.3088 13.5187 16.3747 13.5187C17.4406 13.5187 18.0934 14.2361 18.1138 15.1694C18.1138 16.084 17.4406 16.8235 16.3322 16.8235ZM30.075 28.7643H26.7702V22.8704C26.7702 21.4985 26.2908 20.5669 25.0957 20.5669C24.1828 20.5669 23.6405 21.1976 23.4008 21.8045C23.3124 22.0204 23.2903 22.3264 23.2903 22.6307V28.7626H19.9838V21.5206C19.9838 20.1929 19.9413 19.0828 19.8971 18.1274H22.7684L22.9197 19.6047H22.986C23.4212 18.9111 24.4871 17.8877 26.2704 17.8877C28.4447 17.8877 30.075 19.3446 30.075 22.476V28.7643Z" fill="#FFDC35"/>
</g>
<defs>
<clipPath id="clip0_9_14">
<rect width="34" height="34" fill="white" transform="translate(5 5)"/>
</clipPath>
</defs>
</svg>
