<svg width="49" height="49" viewBox="0 0 49 49" fill="none" xmlns="http://www.w3.org/2000/svg">
<g filter="url(#filter0_d_38_24)">
<circle cx="22.5" cy="22.5" r="22.5" fill="#FFDC35"/>
<circle cx="22.5" cy="22.5" r="20.1804" fill="black"/>
</g>
<path d="M19.4583 13.4167L21.875 11M17.0417 26.7083L26.7083 17.0417M21.875 32.75L24.2917 30.3333M27.3125 30.3333C28.9809 30.3333 30.3333 28.9809 30.3333 27.3125C30.3333 25.6441 28.9809 24.2917 27.3125 24.2917C25.6441 24.2917 24.2917 25.6441 24.2917 27.3125C24.2917 28.9809 25.6441 30.3333 27.3125 30.3333ZM16.4375 19.4583C18.1059 19.4583 19.4583 18.1059 19.4583 16.4375C19.4583 14.7691 18.1059 13.4167 16.4375 13.4167C14.7691 13.4167 13.4167 14.7691 13.4167 16.4375C13.4167 18.1059 14.7691 19.4583 16.4375 19.4583ZM14.0208 32.75C15.6892 32.75 17.0417 31.3975 17.0417 29.7292C17.0417 28.0608 15.6892 26.7083 14.0208 26.7083C12.3525 26.7083 11 28.0608 11 29.7292C11 31.3975 12.3525 32.75 14.0208 32.75ZM29.7292 17.0417C31.3975 17.0417 32.75 15.6892 32.75 14.0208C32.75 12.3525 31.3975 11 29.7292 11C28.0608 11 26.7083 12.3525 26.7083 14.0208C26.7083 15.6892 28.0608 17.0417 29.7292 17.0417Z" stroke="#FFDC35" stroke-width="2" stroke-linecap="round" stroke-linejoin="round"/>
<defs>
<filter id="filter0_d_38_24" x="0" y="0" width="49" height="49" filterUnits="userSpaceOnUse" color-interpolation-filters="sRGB">
<feFlood flood-opacity="0" result="BackgroundImageFix"/>
<feColorMatrix in="SourceAlpha" type="matrix" values="0 0 0 0 0 0 0 0 0 0 0 0 0 0 0 0 0 0 127 0" result="hardAlpha"/>
<feOffset dx="2" dy="2"/>
<feGaussianBlur stdDeviation="1"/>
<feComposite in2="hardAlpha" operator="out"/>
<feColorMatrix type="matrix" values="0 0 0 0 0 0 0 0 0 0 0 0 0 0 0 0 0 0 0.25 0"/>
<feBlend mode="normal" in2="BackgroundImageFix" result="effect1_dropShadow_38_24"/>
<feBlend mode="normal" in="SourceGraphic" in2="effect1_dropShadow_38_24" result="shape"/>
</filter>
</defs>
</svg>
